<svg xmlns="http://www.w3.org/2000/svg" viewBox="0 0 326.88 46.87"><defs><style>.cls-1{fill:#fff;}.cls-2{fill:#bfbdbe;}.cls-3{fill:#b78730;}</style></defs><title>left-one-line-tagline-reverse</title><g id="Layer_2" data-name="Layer 2"><g id="Layer_1-2" data-name="Layer 1"><path class="cls-1" d="M40.73,13.89q.48,0,.93,0l.88,0a.56.56,0,0,1,0,.23c0,.11,0,.18-.06.19l-.27,0a1.48,1.48,0,0,0-.42.14.32.32,0,0,0-.19.31,4,4,0,0,0,.27,1l.32.88c.14.37.28.77.44,1.21s.32.88.49,1.32l.45,1.21c.13.37.24.67.33.91s.13.36.14.38.09-.19.2-.46.24-.6.41-1,.35-.86.55-1.36.4-1,.6-1.5.4-1,.58-1.44a4.27,4.27,0,0,0,.18-.54,1.91,1.91,0,0,0,.07-.48.38.38,0,0,0-.2-.36,1.31,1.31,0,0,0-.43-.16,2.2,2.2,0,0,0-.33-.05s-.05-.09-.05-.2,0-.19.05-.23l.77,0c.24,0,.49,0,.76,0h.55l.4,0,.48,0a.55.55,0,0,1,0,.24c0,.12,0,.18,0,.18a2.21,2.21,0,0,0-.41.07.94.94,0,0,0-.52.3,2.58,2.58,0,0,0-.35.61q-.23.45-.39.87c-.27.67-.51,1.29-.74,1.85s-.44,1.1-.66,1.62l-.66,1.61q-.34.84-.78,1.86a.88.88,0,0,1-.27.39.48.48,0,0,1-.29.11s-.05,0-.07-.1a.48.48,0,0,0-.06-.14c-.33-.87-.64-1.68-.92-2.44s-.58-1.52-.87-2.3-.63-1.64-1-2.58c-.11-.29-.22-.55-.32-.78a4.56,4.56,0,0,0-.35-.62.53.53,0,0,0-.27-.2,1.86,1.86,0,0,0-.39-.1l-.27,0s0-.07,0-.21a.58.58,0,0,1,0-.21l.84,0C40.11,13.88,40.39,13.89,40.73,13.89Z"/><path class="cls-1" d="M51,21.81c0,.22,0,.43,0,.62a1.78,1.78,0,0,0,.07.46c0,.05.09.1.22.14a2.24,2.24,0,0,0,.39.08l.3,0a.44.44,0,0,1,.06.21.29.29,0,0,1-.06.21l-.78-.05c-.23,0-.48,0-.77,0s-.54,0-.77,0l-.79.05a.29.29,0,0,1-.06-.21.44.44,0,0,1,.06-.21l.3,0a2.61,2.61,0,0,0,.42-.08c.13,0,.2-.09.21-.14a1.47,1.47,0,0,0,.06-.46c0-.19,0-.4,0-.62V19.09c0-.1,0-.23,0-.39a1,1,0,0,0-.06-.38c0-.09-.12-.15-.26-.19a3,3,0,0,0-.42-.06h-.27a.76.76,0,0,1,0-.18.31.31,0,0,1,0-.21A8.09,8.09,0,0,0,50,17.45a4.55,4.55,0,0,0,1-.39s.07,0,.11.09a.37.37,0,0,1,.05.15s0,.12,0,.26,0,.28,0,.42a2.42,2.42,0,0,0,0,.28Zm-1.4-7a.72.72,0,1,1,.21.52A.73.73,0,0,1,49.59,14.83Z"/><path class="cls-1" d="M56.54,17.09a2.37,2.37,0,0,1,1.18.29,2.56,2.56,0,0,1,.82.75,3.72,3.72,0,0,1,.48,1,3.58,3.58,0,0,1,.16,1,3.16,3.16,0,0,1-.3,1.35,3.88,3.88,0,0,1-.8,1.12,4,4,0,0,1-1.1.77,2.83,2.83,0,0,1-1.22.29,2.76,2.76,0,0,1-.57-.06,2.84,2.84,0,0,1-.46-.11.41.41,0,0,0-.06.2v2a1.87,1.87,0,0,0,.07.47c0,.05.09.09.22.13a2.38,2.38,0,0,0,.4.07,2.16,2.16,0,0,0,.31,0,.4.4,0,0,1,0,.22.27.27,0,0,1,0,.22l-.79-.05q-.35,0-.78,0c-.28,0-.54,0-.76,0l-.79.05a.27.27,0,0,1,0-.22.51.51,0,0,1,0-.22,2,2,0,0,0,.3,0,2.7,2.7,0,0,0,.41-.07c.13,0,.2-.08.21-.13a1.53,1.53,0,0,0,.06-.47c0-.2,0-.41,0-.62v-6c0-.1,0-.23,0-.39a1,1,0,0,0-.06-.38c0-.09-.12-.15-.26-.19a3,3,0,0,0-.42-.06h-.27a.76.76,0,0,1,0-.18.31.31,0,0,1,0-.21,8.56,8.56,0,0,0,1.12-.23,4.55,4.55,0,0,0,1-.39s.08,0,.11.09a.34.34,0,0,1,0,.15l-.06.29a1.7,1.7,0,0,0,0,.31s0,.06,0,.06l0,0a3.29,3.29,0,0,1,.49-.36,4.17,4.17,0,0,1,.67-.33A1.68,1.68,0,0,1,56.54,17.09Zm-.63.87a1.7,1.7,0,0,0-.59.1,1.87,1.87,0,0,0-.47.23q-.18.13-.18.24V22a.81.81,0,0,0,.23.61,1.33,1.33,0,0,0,.55.35,1.72,1.72,0,0,0,.58.12,1.56,1.56,0,0,0,1-.37,2.27,2.27,0,0,0,.65-.94A3.1,3.1,0,0,0,58,20.66a3,3,0,0,0-.6-2A1.83,1.83,0,0,0,55.91,18Z"/><path class="cls-1" d="M63.27,17.12a1.27,1.27,0,0,1,.78.27,1.93,1.93,0,0,1,.6.72,2.25,2.25,0,0,1,.22,1v3a1.07,1.07,0,0,0,.11.49.36.36,0,0,0,.34.2.54.54,0,0,0,.33-.09l.15-.1s0,0,0,0a.31.31,0,0,1,0,.08.51.51,0,0,1-.08.28,2,2,0,0,1-.29.21,2.86,2.86,0,0,1-.42.24.89.89,0,0,1-.38.11.71.71,0,0,1-.56-.32,1.54,1.54,0,0,1-.32-.64l-.28.22-.5.34-.56.3a1.33,1.33,0,0,1-.48.13,1.68,1.68,0,0,1-1.21-.49,1.62,1.62,0,0,1-.5-1.19,1.25,1.25,0,0,1,.25-.77,1.21,1.21,0,0,1,.49-.42l.94-.32c.34-.11.66-.23,1-.34s.52-.19.66-.25a.27.27,0,0,0,.15-.11.75.75,0,0,0,0-.26v-.39a1.46,1.46,0,0,0-.16-.66,1.67,1.67,0,0,0-.45-.54,1.07,1.07,0,0,0-.65-.21.64.64,0,0,0-.55.24,1.54,1.54,0,0,0-.26.67c-.09.47-.32.71-.69.71a.4.4,0,0,1-.36-.2.72.72,0,0,1-.13-.42.86.86,0,0,1,0-.17.5.5,0,0,1,.07-.19,5.68,5.68,0,0,1,.65-.49,5,5,0,0,1,1-.5A2.86,2.86,0,0,1,63.27,17.12Zm-.78,5.71a1.48,1.48,0,0,0,.55-.12,2.42,2.42,0,0,0,.51-.26c.14-.09.21-.17.21-.22v-2l-.72.22-.64.21a1.67,1.67,0,0,0-.65.44,1,1,0,0,0-.25.7,1,1,0,0,0,.28.72A.94.94,0,0,0,62.49,22.83Z"/><path class="cls-1" d="M68.89,17.11a2.92,2.92,0,0,1,.72.07c.2,0,.45.08.78.12a6.61,6.61,0,0,1,.12.77c0,.3,0,.58,0,.84,0,.05,0,.07-.14.07h-.13a.31.31,0,0,1-.13-.06,2.59,2.59,0,0,0-.25-.59,1.7,1.7,0,0,0-.42-.53.84.84,0,0,0-.56-.22,1.06,1.06,0,0,0-.78.26.92.92,0,0,0-.25.66.93.93,0,0,0,.18.6,1.72,1.72,0,0,0,.47.41l.62.36.72.44a2.85,2.85,0,0,1,.67.56,1.17,1.17,0,0,1,.29.79,1.78,1.78,0,0,1-.32,1,2.21,2.21,0,0,1-.82.72,2.45,2.45,0,0,1-1.11.26,3.15,3.15,0,0,1-.87-.1l-.84-.18a3.46,3.46,0,0,1-.12-.45,5.58,5.58,0,0,1-.09-.59,3.28,3.28,0,0,1,0-.48.44.44,0,0,1,.27-.09.21.21,0,0,1,.12,0,2.29,2.29,0,0,0,.31.63,2,2,0,0,0,.56.53,1.25,1.25,0,0,0,.72.22,1.08,1.08,0,0,0,.75-.27,1,1,0,0,0,.3-.78,1,1,0,0,0-.27-.72,2.79,2.79,0,0,0-.68-.5l-.84-.46a3.28,3.28,0,0,1-.77-.62,1.36,1.36,0,0,1-.34-.95,1.54,1.54,0,0,1,.31-.94,2.13,2.13,0,0,1,.79-.63A2.52,2.52,0,0,1,68.89,17.11Z"/><path class="cls-1" d="M74.28,17.11a3.06,3.06,0,0,1,.73.07c.19,0,.45.08.77.12a6.61,6.61,0,0,1,.12.77q0,.45.06.84c0,.05,0,.07-.15.07h-.13a.34.34,0,0,1-.12-.06,3.14,3.14,0,0,0-.25-.59,2,2,0,0,0-.42-.53.86.86,0,0,0-.56-.22,1.06,1.06,0,0,0-.78.26,1,1,0,0,0-.08,1.26,1.72,1.72,0,0,0,.47.41l.63.36.72.44a3.07,3.07,0,0,1,.67.56,1.16,1.16,0,0,1,.28.79,1.77,1.77,0,0,1-.31,1,2.38,2.38,0,0,1-.82.72,2.45,2.45,0,0,1-1.11.26,3.15,3.15,0,0,1-.87-.1l-.84-.18a3.46,3.46,0,0,1-.12-.45c0-.19-.07-.39-.1-.59s0-.36,0-.48a.44.44,0,0,1,.27-.09.21.21,0,0,1,.12,0,2.34,2.34,0,0,0,.32.63,2,2,0,0,0,.55.53,1.25,1.25,0,0,0,.72.22,1.08,1.08,0,0,0,.75-.27,1,1,0,0,0,.3-.78,1,1,0,0,0-.27-.72,2.72,2.72,0,0,0-.67-.5l-.84-.46a3.09,3.09,0,0,1-.77-.62,1.32,1.32,0,0,1-.34-.95,1.48,1.48,0,0,1,.31-.94,2,2,0,0,1,.78-.63A2.52,2.52,0,0,1,74.28,17.11Z"/><path class="cls-1" d="M80.35,17.12a1.32,1.32,0,0,1,.79.27,2,2,0,0,1,.59.72,2.25,2.25,0,0,1,.22,1v3a1.07,1.07,0,0,0,.11.49.36.36,0,0,0,.34.2.54.54,0,0,0,.33-.09l.15-.1a.05.05,0,0,1,.05,0,.25.25,0,0,1,0,.08.51.51,0,0,1-.07.28l-.29.21a4.49,4.49,0,0,1-.42.24,1,1,0,0,1-.39.11.72.72,0,0,1-.56-.32,1.68,1.68,0,0,1-.32-.64l-.28.22c-.14.11-.31.22-.5.34l-.56.3a1.29,1.29,0,0,1-.47.13,1.7,1.7,0,0,1-1.22-.49A1.61,1.61,0,0,1,77.37,22a1.19,1.19,0,0,1,.25-.77,1.13,1.13,0,0,1,.48-.42l.94-.32,1-.34c.3-.1.51-.19.65-.25a.27.27,0,0,0,.15-.11.75.75,0,0,0,0-.26v-.39a1.46,1.46,0,0,0-.16-.66,1.67,1.67,0,0,0-.45-.54,1,1,0,0,0-.64-.21.66.66,0,0,0-.56.24,1.54,1.54,0,0,0-.25.67c-.09.47-.32.71-.69.71a.43.43,0,0,1-.37-.2.8.8,0,0,1-.13-.42.86.86,0,0,1,0-.17.49.49,0,0,1,.08-.19,5.43,5.43,0,0,1,.64-.49,5,5,0,0,1,1-.5A2.9,2.9,0,0,1,80.35,17.12Zm-.78,5.71a1.53,1.53,0,0,0,.56-.12,3,3,0,0,0,.51-.26c.13-.09.2-.17.2-.22v-2l-.71.22-.65.21a1.63,1.63,0,0,0-.64.44,1,1,0,0,0-.26.7,1,1,0,0,0,.29.72A.92.92,0,0,0,79.57,22.83Z"/><path class="cls-1" d="M87.84,17.09a1.87,1.87,0,0,1,1.2.33,1.74,1.74,0,0,1,.55,1,9.37,9.37,0,0,1,.14,1.75v1.62c0,.22,0,.43,0,.62a1.44,1.44,0,0,0,.07.46c0,.05.09.1.21.14a2.57,2.57,0,0,0,.4.08l.3,0a.36.36,0,0,1,0,.21.25.25,0,0,1,0,.21l-.79-.05c-.22,0-.48,0-.77,0s-.53,0-.76,0l-.8.05a.3.3,0,0,1,0-.21.46.46,0,0,1,0-.21l.31,0a2.48,2.48,0,0,0,.41-.08c.13,0,.2-.09.21-.14a1.78,1.78,0,0,0,.07-.46c0-.19,0-.4,0-.62V20.34a6.73,6.73,0,0,0-.12-1.43,1.21,1.21,0,0,0-.44-.74,1.49,1.49,0,0,0-.88-.22,1.19,1.19,0,0,0-.59.17,2.72,2.72,0,0,0-.56.37c-.16.13-.25.22-.25.27v3c0,.22,0,.43,0,.62a1.78,1.78,0,0,0,.07.46c0,.05.09.1.22.14a2.24,2.24,0,0,0,.39.08l.3,0a.44.44,0,0,1,.06.21.29.29,0,0,1-.06.21L86,23.5c-.23,0-.48,0-.77,0s-.54,0-.77,0l-.79.05a.29.29,0,0,1-.06-.21.44.44,0,0,1,.06-.21l.3,0a2.61,2.61,0,0,0,.42-.08c.13,0,.2-.09.21-.14a1.47,1.47,0,0,0,.06-.46c0-.19,0-.4,0-.62V19.15c0-.1,0-.24,0-.42a1.07,1.07,0,0,0-.06-.41c0-.09-.12-.15-.26-.19a3,3,0,0,0-.42-.06h-.27a.76.76,0,0,1,0-.18.31.31,0,0,1,0-.21,8.09,8.09,0,0,0,1.11-.23,4.55,4.55,0,0,0,1-.39s.07,0,.11.09a.37.37,0,0,1,0,.15s0,.11,0,.23,0,.25,0,.37,0,.2,0,.24,0,.06,0,.06l0,0a4.18,4.18,0,0,1,.49-.42,4.56,4.56,0,0,1,.74-.45A1.64,1.64,0,0,1,87.84,17.09Z"/><path class="cls-1" d="M94.42,17.12a1.32,1.32,0,0,1,.79.27,2,2,0,0,1,.59.72,2.25,2.25,0,0,1,.22,1v3a1.07,1.07,0,0,0,.11.49.36.36,0,0,0,.34.2.54.54,0,0,0,.33-.09l.15-.1a.05.05,0,0,1,0,0,.25.25,0,0,1,0,.08.51.51,0,0,1-.07.28l-.29.21a4.49,4.49,0,0,1-.42.24,1,1,0,0,1-.38.11.74.74,0,0,1-.57-.32,1.68,1.68,0,0,1-.32-.64l-.28.22c-.14.11-.31.22-.5.34l-.56.3a1.24,1.24,0,0,1-.47.13,1.7,1.7,0,0,1-1.22-.49A1.61,1.61,0,0,1,91.44,22a1.19,1.19,0,0,1,.25-.77,1.13,1.13,0,0,1,.48-.42l.94-.32,1-.34c.3-.1.52-.19.66-.25a.27.27,0,0,0,.15-.11.75.75,0,0,0,0-.26v-.39a1.47,1.47,0,0,0-.17-.66,1.67,1.67,0,0,0-.45-.54,1,1,0,0,0-.64-.21.66.66,0,0,0-.56.24,1.54,1.54,0,0,0-.25.67c-.09.47-.32.71-.69.71a.43.43,0,0,1-.37-.2.8.8,0,0,1-.13-.42.86.86,0,0,1,0-.17.49.49,0,0,1,.08-.19,5.43,5.43,0,0,1,.64-.49,5,5,0,0,1,1-.5A2.9,2.9,0,0,1,94.42,17.12Zm-.78,5.71a1.53,1.53,0,0,0,.56-.12,2.42,2.42,0,0,0,.51-.26c.14-.09.21-.17.21-.22v-2l-.72.22-.65.21a1.63,1.63,0,0,0-.64.44,1,1,0,0,0-.26.7,1,1,0,0,0,.29.72A.92.92,0,0,0,93.64,22.83Z"/><path class="cls-1" d="M104,13.89a6.38,6.38,0,0,0,.66,0l.53,0c.06.19.17.48.33.88l.59,1.42c.22.54.46,1.12.72,1.73s.52,1.21.77,1.82l.69,1.68a.06.06,0,0,0,.06,0s0,0,.06-.06c.29-.74.55-1.4.78-2l.69-1.78c.24-.59.5-1.25.78-2,.09-.23.18-.48.28-.75s.22-.6.36-1c.47,0,.85,0,1.15,0h.88l.76,0a3.8,3.8,0,0,1,0,.42l-.33,0a3,3,0,0,0-.45.09c-.14,0-.22.08-.25.13a.9.9,0,0,0-.06.27c0,.11,0,.21,0,.3q0,.38,0,1.14c0,.51,0,1.08,0,1.71s0,1.27,0,1.89,0,1.16,0,1.64c0,.28,0,.55,0,.8a2.12,2.12,0,0,0,.13.63q0,.11.27.15a3.69,3.69,0,0,0,.46.08l.29,0a.4.4,0,0,1,.05.25.49.49,0,0,1,0,.17l-.84-.05c-.28,0-.58,0-.9,0s-.63,0-.88,0l-.88.05a.76.76,0,0,1,0-.18.44.44,0,0,1,0-.24l.28,0,.39-.06a1.85,1.85,0,0,0,.29-.08s.08-.12.1-.26a2.6,2.6,0,0,0,0-.36c0-.11,0-.25,0-.42s0-.32,0-.43c0-.71,0-1.39-.06-2.05s0-1.32-.06-2-.05-1.42-.08-2.21c0,0,0-.08,0-.16s-.06-.12-.11-.12,0,0-.07.1l-.84,2.09c-.25.64-.5,1.25-.74,1.85l-.73,1.81-.78,2-.14.24q-.11.18-.21.33t-.21.18s0,0-.1,0h0L104.16,15c0,.64,0,1.3,0,2s0,1.34-.06,2,0,1.22,0,1.73,0,.93,0,1.25,0,.48,0,.51a1.85,1.85,0,0,0,0,.23,1,1,0,0,0,0,.22c0,.07.13.13.3.17a5,5,0,0,0,.54.08l.33,0a.3.3,0,0,1,0,.23.78.78,0,0,1,0,.19l-.75-.05c-.21,0-.47,0-.79,0s-.63,0-.86,0l-.85.05a.76.76,0,0,1,0-.18.44.44,0,0,1,0-.24l.35,0a4.34,4.34,0,0,0,.52-.09.52.52,0,0,0,.31-.15.83.83,0,0,0,.14-.32,3.79,3.79,0,0,0,0-.41c0-.88.06-1.73.09-2.53s0-1.54.06-2.18,0-1.17,0-1.58,0-.64,0-.71,0-.21,0-.31a.76.76,0,0,0-.05-.27c0-.06-.1-.12-.25-.16a3,3,0,0,0-.45-.11l-.32,0s0-.07,0-.21a.58.58,0,0,1,0-.21l.55,0,.42,0Z"/><path class="cls-1" d="M116.45,19.88a3.22,3.22,0,0,0,.31,1.56,2.25,2.25,0,0,0,.89.94,2.48,2.48,0,0,0,1.2.3,1.9,1.9,0,0,0,.73-.14,2.3,2.3,0,0,0,.56-.33,2.34,2.34,0,0,0,.31-.29l.07,0a.22.22,0,0,1,0,.14.54.54,0,0,1-.09.27,3.16,3.16,0,0,1-.42.5,2.67,2.67,0,0,1-.72.52,2.14,2.14,0,0,1-1,.23,2.86,2.86,0,0,1-1.52-.41,2.92,2.92,0,0,1-1-1.09,3.2,3.2,0,0,1-.37-1.55,3.48,3.48,0,0,1,.26-1.37,3.71,3.71,0,0,1,.69-1.11,3.41,3.41,0,0,1,.93-.74,2.11,2.11,0,0,1,1-.27,2.32,2.32,0,0,1,1.09.23,1.94,1.94,0,0,1,.67.55,2.12,2.12,0,0,1,.35.66,2.29,2.29,0,0,1,.1.56,1.28,1.28,0,0,1-.08.49.3.3,0,0,1-.28.2l-.54,0-.9,0-1,0-.83,0Zm.07-.54h2.39a.37.37,0,0,0,.23-.07.38.38,0,0,0,.11-.27,1.28,1.28,0,0,0-.1-.51,1.74,1.74,0,0,0-.38-.6,1,1,0,0,0-.72-.27,1.08,1.08,0,0,0-.76.26,1.82,1.82,0,0,0-.47.6,2.34,2.34,0,0,0-.24.6A1.71,1.71,0,0,0,116.52,19.34Z"/><path class="cls-1" d="M125.17,17.09a3.25,3.25,0,0,1,.57.06,2.11,2.11,0,0,1,.44.09s.07-.1.07-.3v-1.6c0-.11,0-.24,0-.4a1.12,1.12,0,0,0-.06-.36.39.39,0,0,0-.33-.21,3.45,3.45,0,0,0-.57,0s0-.06,0-.19,0-.19,0-.2a5.85,5.85,0,0,0,1.09-.22,7.22,7.22,0,0,0,1-.36.14.14,0,0,1,.12.08.33.33,0,0,1,.05.16,5.23,5.23,0,0,0-.17,1.27v6.26c0,.28,0,.57,0,.85a2.1,2.1,0,0,0,.08.59.4.4,0,0,0,.35.2l.43.06h.07s0,0,0,.08a.41.41,0,0,1,0,.1s0,0,0,.11-.05.1-.09.1a4.18,4.18,0,0,0-.81.12c-.3.07-.55.13-.76.2l-.33.1s-.07,0-.09-.11a.67.67,0,0,1,0-.18v-.51c0-.09,0-.12,0-.09a1.78,1.78,0,0,1-.44.33,4.66,4.66,0,0,1-.74.38,1.87,1.87,0,0,1-.76.18,2.11,2.11,0,0,1-1.25-.42,2.86,2.86,0,0,1-1-1.12,3.37,3.37,0,0,1-.37-1.6,2.73,2.73,0,0,1,.35-1.34,4.25,4.25,0,0,1,.9-1.08,4.84,4.84,0,0,1,1.15-.71A2.68,2.68,0,0,1,125.17,17.09Zm-.48.62a1.35,1.35,0,0,0-1,.35,2.28,2.28,0,0,0-.61.91,3.07,3.07,0,0,0-.22,1.16,3.35,3.35,0,0,0,.24,1.28,2.22,2.22,0,0,0,.7.94,1.8,1.8,0,0,0,1.13.36,1.93,1.93,0,0,0,.88-.2c.26-.13.39-.26.39-.38v-3.7c0-.17-.16-.34-.47-.49A2.39,2.39,0,0,0,124.69,17.71Z"/><path class="cls-1" d="M131.28,21.81c0,.22,0,.43,0,.62a1.78,1.78,0,0,0,.07.46c0,.05.09.1.22.14a2.24,2.24,0,0,0,.39.08l.3,0a.44.44,0,0,1,.06.21.29.29,0,0,1-.06.21l-.78-.05c-.23,0-.48,0-.77,0s-.54,0-.77,0l-.79.05a.29.29,0,0,1-.06-.21.44.44,0,0,1,.06-.21l.3,0a2.61,2.61,0,0,0,.42-.08c.13,0,.2-.09.21-.14a1.47,1.47,0,0,0,.06-.46c0-.19,0-.4,0-.62V19.09c0-.1,0-.23,0-.39a1,1,0,0,0-.06-.38c0-.09-.12-.15-.26-.19a3,3,0,0,0-.42-.06h-.27a.76.76,0,0,1,0-.18.31.31,0,0,1,0-.21,8.09,8.09,0,0,0,1.11-.23,4.55,4.55,0,0,0,1-.39s.07,0,.11.09a.37.37,0,0,1,0,.15s0,.12,0,.26,0,.28-.05.42a2.42,2.42,0,0,0,0,.28Zm-1.4-7a.72.72,0,1,1,.21.52A.73.73,0,0,1,129.88,14.83Z"/><path class="cls-1" d="M134.91,17.18h1.89s.07.06.07.17a.61.61,0,0,1-.21.43h-1.75v3.84c0,.8.32,1.2,1,1.2a1.33,1.33,0,0,0,.6-.14,2.73,2.73,0,0,0,.35-.19s0,0,0,.09a.3.3,0,0,1-.06.22,3.15,3.15,0,0,1-.32.32,2.23,2.23,0,0,1-.52.34,1.43,1.43,0,0,1-.66.15,2,2,0,0,1-.72-.13A1.17,1.17,0,0,1,134,23a1.8,1.8,0,0,1-.22-1V17.78h-.86s0,0,0-.05a.45.45,0,0,1,0-.08.36.36,0,0,1,.09-.14c.06-.08.16-.19.29-.33h.54v-.91c.1-.11.21-.24.35-.38l.37-.41.18-.2a.18.18,0,0,1,.14-.06s.08,0,.08,0Z"/><path class="cls-1" d="M140.63,17.12a1.3,1.3,0,0,1,.79.27,1.91,1.91,0,0,1,.59.72,2.25,2.25,0,0,1,.23,1v3a1.07,1.07,0,0,0,.1.49.37.37,0,0,0,.35.2.54.54,0,0,0,.33-.09l.15-.1s0,0,0,0a.31.31,0,0,1,0,.08.51.51,0,0,1-.08.28l-.29.21a3.5,3.5,0,0,1-.42.24.89.89,0,0,1-.38.11.71.71,0,0,1-.56-.32,1.57,1.57,0,0,1-.33-.64l-.27.22-.5.34c-.2.11-.38.21-.57.3a1.24,1.24,0,0,1-.47.13,1.68,1.68,0,0,1-1.21-.49,1.62,1.62,0,0,1-.5-1.19,1.19,1.19,0,0,1,.25-.77,1.15,1.15,0,0,1,.49-.42l.93-.32c.35-.11.67-.23,1-.34s.52-.19.66-.25a.27.27,0,0,0,.15-.11.75.75,0,0,0,0-.26v-.39a1.47,1.47,0,0,0-.17-.66,1.67,1.67,0,0,0-.45-.54,1,1,0,0,0-.64-.21.64.64,0,0,0-.55.24,1.54,1.54,0,0,0-.26.67c-.09.47-.32.71-.69.71a.43.43,0,0,1-.37-.2.79.79,0,0,1-.12-.42.86.86,0,0,1,0-.17.5.5,0,0,1,.07-.19,5.68,5.68,0,0,1,.65-.49,4.72,4.72,0,0,1,1-.5A2.81,2.81,0,0,1,140.63,17.12Zm-.77,5.71a1.52,1.52,0,0,0,.55-.12,2.42,2.42,0,0,0,.51-.26c.14-.09.21-.17.21-.22v-2l-.72.22-.64.21a1.67,1.67,0,0,0-.65.44,1,1,0,0,0-.25.7,1,1,0,0,0,.28.72A.94.94,0,0,0,139.86,22.83Z"/><path class="cls-1" d="M145.74,17.18h1.89c.05,0,.08.06.08.17a.61.61,0,0,1-.21.43h-1.76v3.84c0,.8.33,1.2,1,1.2a1.33,1.33,0,0,0,.6-.14,2.38,2.38,0,0,0,.34-.19s.05,0,.05.09a.3.3,0,0,1-.06.22c-.07.08-.18.19-.32.32a2.46,2.46,0,0,1-.52.34,1.45,1.45,0,0,1-.66.15,2,2,0,0,1-.73-.13,1.2,1.2,0,0,1-.57-.48,1.8,1.8,0,0,1-.23-1V17.78h-.85s0,0-.05-.05a.28.28,0,0,1,0-.08.36.36,0,0,1,.09-.14,4.19,4.19,0,0,1,.28-.33h.54v-.91l.35-.38.37-.41.18-.2a.2.2,0,0,1,.14-.06c.06,0,.08,0,.08,0Z"/><path class="cls-1" d="M150.6,21.81c0,.22,0,.43,0,.62a1.47,1.47,0,0,0,.06.46c0,.05.1.1.22.14a2.57,2.57,0,0,0,.4.08l.3,0a.36.36,0,0,1,0,.21.25.25,0,0,1,0,.21l-.79-.05c-.22,0-.48,0-.77,0s-.53,0-.76,0l-.8.05a.25.25,0,0,1-.05-.21.36.36,0,0,1,.05-.21l.31,0a2.7,2.7,0,0,0,.41-.08c.13,0,.2-.09.21-.14a1.78,1.78,0,0,0,.07-.46c0-.19,0-.4,0-.62V19.09c0-.1,0-.23,0-.39a1.17,1.17,0,0,0-.07-.38c0-.09-.11-.15-.25-.19a3,3,0,0,0-.42-.06h-.27a.76.76,0,0,1,0-.18.31.31,0,0,1,0-.21,7.65,7.65,0,0,0,1.1-.23,4.36,4.36,0,0,0,1-.39s.08,0,.11.09a.26.26,0,0,1,0,.15s0,.12,0,.26,0,.28,0,.42,0,.23,0,.28Zm-1.41-7a.7.7,0,0,1,.22-.52.74.74,0,0,1,1,0,.72.72,0,0,1,0,1,.74.74,0,0,1-1,0A.7.7,0,0,1,149.19,14.83Z"/><path class="cls-1" d="M155.6,17.08a3.16,3.16,0,0,1,1.67.42,2.82,2.82,0,0,1,1.08,1.14,3.36,3.36,0,0,1,.39,1.63,3.53,3.53,0,0,1-.41,1.7,3.13,3.13,0,0,1-1.11,1.2,3,3,0,0,1-1.59.44,3.15,3.15,0,0,1-1.67-.43A2.81,2.81,0,0,1,152.87,22a3.71,3.71,0,0,1,0-3.33A3.13,3.13,0,0,1,154,17.51,2.9,2.9,0,0,1,155.6,17.08Zm-.16.49a1.34,1.34,0,0,0-1,.37,2.08,2.08,0,0,0-.54.94,4.42,4.42,0,0,0-.16,1.21A4.34,4.34,0,0,0,154,21.5a2.85,2.85,0,0,0,.69,1.17,1.48,1.48,0,0,0,1.11.46,1.34,1.34,0,0,0,1-.37,2.14,2.14,0,0,0,.53-1,4.4,4.4,0,0,0,.17-1.2,4.26,4.26,0,0,0-.24-1.41,3,3,0,0,0-.69-1.16A1.49,1.49,0,0,0,155.44,17.57Z"/><path class="cls-1" d="M164.06,17.09a1.85,1.85,0,0,1,1.19.33,1.68,1.68,0,0,1,.55,1,8.58,8.58,0,0,1,.14,1.75v1.62c0,.22,0,.43,0,.62a1.78,1.78,0,0,0,.07.46c0,.05.09.1.21.14a2.57,2.57,0,0,0,.4.08l.3,0a.36.36,0,0,1,0,.21.25.25,0,0,1,0,.21l-.78-.05c-.23,0-.49,0-.78,0s-.53,0-.76,0l-.8.05a.3.3,0,0,1-.05-.21.46.46,0,0,1,.05-.21l.31,0a2.48,2.48,0,0,0,.41-.08c.13,0,.2-.09.21-.14a1.44,1.44,0,0,0,.07-.46c0-.19,0-.4,0-.62V20.34a6.73,6.73,0,0,0-.12-1.43,1.21,1.21,0,0,0-.44-.74,1.47,1.47,0,0,0-.88-.22,1.19,1.19,0,0,0-.59.17,3,3,0,0,0-.56.37q-.24.2-.24.27v3.67a1.78,1.78,0,0,0,.07.46c0,.05.09.1.22.14a2.36,2.36,0,0,0,.4.08l.3,0a.46.46,0,0,1,.05.21.3.3,0,0,1-.05.21l-.79-.05c-.23,0-.48,0-.77,0s-.54,0-.77,0l-.79.05a.25.25,0,0,1-.05-.21.36.36,0,0,1,.05-.21l.31,0a2.7,2.7,0,0,0,.41-.08c.13,0,.2-.09.21-.14a1.78,1.78,0,0,0,.07-.46v-3.7a1.27,1.27,0,0,0-.07-.41c0-.09-.12-.15-.26-.19a3,3,0,0,0-.42-.06h-.27a.76.76,0,0,1,0-.18.31.31,0,0,1,0-.21,8.09,8.09,0,0,0,1.11-.23,4.55,4.55,0,0,0,1-.39s.07,0,.11.09a.37.37,0,0,1,.05.15s0,.11,0,.23,0,.25,0,.37,0,.2,0,.24,0,.06,0,.06l.05,0a3.92,3.92,0,0,1,.48-.42,4.66,4.66,0,0,1,.75-.45A1.61,1.61,0,0,1,164.06,17.09Z"/><path class="cls-1" d="M175,17.12a1.32,1.32,0,0,1,.79.27,2,2,0,0,1,.59.72,2.25,2.25,0,0,1,.22,1v3a1.07,1.07,0,0,0,.11.49.36.36,0,0,0,.34.2.54.54,0,0,0,.33-.09l.15-.1a.05.05,0,0,1,.05,0,.25.25,0,0,1,0,.08.51.51,0,0,1-.07.28l-.3.21a2.86,2.86,0,0,1-.42.24.89.89,0,0,1-.38.11.72.72,0,0,1-.56-.32,1.68,1.68,0,0,1-.32-.64l-.28.22c-.14.11-.31.22-.5.34l-.56.3a1.29,1.29,0,0,1-.47.13,1.7,1.7,0,0,1-1.22-.49A1.61,1.61,0,0,1,172,22a1.24,1.24,0,0,1,.24-.77,1.21,1.21,0,0,1,.49-.42l.94-.32c.34-.11.66-.23,1-.34s.52-.19.66-.25a.27.27,0,0,0,.15-.11.75.75,0,0,0,0-.26v-.39a1.46,1.46,0,0,0-.16-.66,1.67,1.67,0,0,0-.45-.54,1.07,1.07,0,0,0-.65-.21.65.65,0,0,0-.55.24,1.54,1.54,0,0,0-.25.67c-.09.47-.32.71-.69.71a.42.42,0,0,1-.37-.2.72.72,0,0,1-.13-.42.86.86,0,0,1,0-.17.49.49,0,0,1,.08-.19,5.43,5.43,0,0,1,.64-.49,5,5,0,0,1,.95-.5A2.9,2.9,0,0,1,175,17.12Zm-.78,5.71a1.48,1.48,0,0,0,.55-.12,2.42,2.42,0,0,0,.51-.26c.14-.09.21-.17.21-.22v-2l-.72.22-.64.21a1.63,1.63,0,0,0-.64.44,1,1,0,0,0-.26.7,1,1,0,0,0,.29.72A.92.92,0,0,0,174.23,22.83Z"/><path class="cls-1" d="M180.63,17.11a3.06,3.06,0,0,1,.73.07c.19,0,.45.08.77.12a6.61,6.61,0,0,1,.12.77q0,.45.06.84c0,.05-.05.07-.15.07H182a.31.31,0,0,1-.13-.06,3.05,3.05,0,0,0-.24-.59,2,2,0,0,0-.42-.53.89.89,0,0,0-.57-.22,1,1,0,0,0-.77.26,1,1,0,0,0-.08,1.26,1.72,1.72,0,0,0,.47.41l.62.36.72.44a3.13,3.13,0,0,1,.68.56,1.16,1.16,0,0,1,.28.79,1.77,1.77,0,0,1-.31,1,2.32,2.32,0,0,1-.83.72,2.45,2.45,0,0,1-1.11.26,3,3,0,0,1-.86-.1l-.84-.18a3.46,3.46,0,0,1-.12-.45,5.58,5.58,0,0,1-.1-.59,3.28,3.28,0,0,1,0-.48.44.44,0,0,1,.27-.09.21.21,0,0,1,.12,0,2.34,2.34,0,0,0,.32.63,1.86,1.86,0,0,0,.55.53,1.25,1.25,0,0,0,.72.22,1.08,1.08,0,0,0,.75-.27,1,1,0,0,0,.3-.78,1,1,0,0,0-.27-.72,2.79,2.79,0,0,0-.68-.5l-.84-.46a3.5,3.5,0,0,1-.77-.62,1.36,1.36,0,0,1-.33-.95,1.53,1.53,0,0,1,.3-.94,2.13,2.13,0,0,1,.79-.63A2.52,2.52,0,0,1,180.63,17.11Z"/><path class="cls-1" d="M195,13.83a1.92,1.92,0,0,0,.47-.08,3.13,3.13,0,0,0,.42-.13.46.46,0,0,1,.16-.06l.11,0c.05.45.11.88.17,1.3s.14.82.22,1.21l-.11.08a.27.27,0,0,1-.18,0,.23.23,0,0,1-.21-.08,3.41,3.41,0,0,0-.49-1.27,1,1,0,0,0-.9-.51h-1.86v7.46c0,.22,0,.43,0,.62a1.44,1.44,0,0,0,.07.46c0,.05.1.1.24.14a2.87,2.87,0,0,0,.44.08l.32,0a.36.36,0,0,1,0,.21.25.25,0,0,1,0,.21L193,23.5c-.28,0-.56,0-.85,0s-.56,0-.85,0l-.89.05a.3.3,0,0,1,0-.21.46.46,0,0,1,0-.21l.33,0a3.14,3.14,0,0,0,.46-.08c.15,0,.22-.09.23-.14a1.44,1.44,0,0,0,.07-.46c0-.19,0-.4,0-.62V14.35h-1.89a1,1,0,0,0-.9.51,3.59,3.59,0,0,0-.51,1.27.37.37,0,0,1-.38.05l-.1-.08c.08-.39.15-.79.21-1.21s.12-.85.17-1.3a.27.27,0,0,1,.18,0,.5.5,0,0,1,.16.05l.38.13a2,2,0,0,0,.43.07Z"/><path class="cls-1" d="M199,17.12a1.32,1.32,0,0,1,.79.27,2,2,0,0,1,.59.72,2.25,2.25,0,0,1,.22,1v3a1.07,1.07,0,0,0,.11.49.36.36,0,0,0,.34.2.54.54,0,0,0,.33-.09l.15-.1a.05.05,0,0,1,.05,0,.25.25,0,0,1,0,.08.51.51,0,0,1-.07.28l-.29.21a4.49,4.49,0,0,1-.42.24,1,1,0,0,1-.38.11.74.74,0,0,1-.57-.32,1.68,1.68,0,0,1-.32-.64l-.28.22c-.14.11-.31.22-.5.34l-.56.3a1.29,1.29,0,0,1-.47.13,1.7,1.7,0,0,1-1.22-.49A1.61,1.61,0,0,1,196,22a1.19,1.19,0,0,1,.25-.77,1.13,1.13,0,0,1,.48-.42l.94-.32,1-.34c.3-.1.52-.19.66-.25a.27.27,0,0,0,.15-.11.75.75,0,0,0,0-.26v-.39a1.47,1.47,0,0,0-.17-.66,1.67,1.67,0,0,0-.45-.54,1,1,0,0,0-.64-.21.66.66,0,0,0-.56.24,1.54,1.54,0,0,0-.25.67c-.09.47-.32.71-.69.71a.43.43,0,0,1-.37-.2.8.8,0,0,1-.13-.42.86.86,0,0,1,0-.17.49.49,0,0,1,.08-.19,5.43,5.43,0,0,1,.64-.49,5,5,0,0,1,.95-.5A2.9,2.9,0,0,1,199,17.12Zm-.78,5.71a1.53,1.53,0,0,0,.56-.12,2.42,2.42,0,0,0,.51-.26c.14-.09.21-.17.21-.22v-2l-.72.22-.65.21a1.63,1.63,0,0,0-.64.44,1,1,0,0,0-.26.7,1,1,0,0,0,.29.72A.92.92,0,0,0,198.19,22.83Z"/><path class="cls-1" d="M206.85,18.83v-.06c0-.1,0-.22,0-.37a1,1,0,0,0-.09-.36.49.49,0,0,0-.39-.26,2.93,2.93,0,0,0-.44,0,.29.29,0,0,1,0-.17.39.39,0,0,1,0-.21c.38,0,.75-.05,1.1-.1a5.94,5.94,0,0,0,.91-.2s.08.05.11.15a.8.8,0,0,1,0,.21,1.07,1.07,0,0,0-.06.36,5.41,5.41,0,0,0,0,.59v3.07c0,.08,0,.24,0,.47a4.18,4.18,0,0,0,.07.65c0,.12.15.19.34.21l.44.05H209s0,0,0,.07,0,.07,0,.09a.9.9,0,0,1,0,.12c0,.07-.05.11-.09.11a4.28,4.28,0,0,0-.82.12c-.29.07-.55.13-.76.2l-.33.1s-.07,0-.09-.09a.4.4,0,0,1,0-.15v-.68s0-.06,0-.07a3.37,3.37,0,0,1-.54.44,3.77,3.77,0,0,1-.75.38,2.15,2.15,0,0,1-.77.15,1.49,1.49,0,0,1-.95-.28,1.74,1.74,0,0,1-.55-.72,3.6,3.6,0,0,1-.27-.95,8.27,8.27,0,0,1-.06-1V18.83c0-.1,0-.23,0-.39a.94.94,0,0,0-.1-.4.49.49,0,0,0-.39-.26,2.93,2.93,0,0,0-.44,0,.29.29,0,0,1,0-.17.31.31,0,0,1,0-.21c.38,0,.75-.05,1.1-.1a5.94,5.94,0,0,0,.91-.2s.08,0,.11.12a.46.46,0,0,1,.06.18,1.31,1.31,0,0,0-.08.39c0,.2,0,.41,0,.62v2.15a3.3,3.3,0,0,0,.35,1.72,1.23,1.23,0,0,0,1.12.55,1.69,1.69,0,0,0,.63-.13,1.65,1.65,0,0,0,.5-.32.51.51,0,0,0,.2-.36Z"/><path class="cls-1" d="M213.67,22.53a2.87,2.87,0,0,1,1.1.21,2.25,2.25,0,0,1,.84.56,1.06,1.06,0,0,1,.32.76,1.76,1.76,0,0,1-.3.93,3.86,3.86,0,0,1-.83.9,4.37,4.37,0,0,1-1.22.68,3.92,3.92,0,0,1-1.45.26,3.67,3.67,0,0,1-1.17-.19,2.37,2.37,0,0,1-1-.59,1.38,1.38,0,0,1-.39-1,.9.9,0,0,1,.28-.63,3.53,3.53,0,0,1,.66-.54c.25-.16.45-.28.61-.36a2.66,2.66,0,0,1-.53-.27,1.71,1.71,0,0,1-.47-.46,1,1,0,0,1-.19-.63,2.74,2.74,0,0,1,.38-.35c.16-.14.33-.27.49-.39l.38-.25a2.44,2.44,0,0,1-.87-.82A1.84,1.84,0,0,1,210,19.3a2,2,0,0,1,.32-1.09,2.43,2.43,0,0,1,.89-.82,2.5,2.5,0,0,1,1.26-.31,2.15,2.15,0,0,1,.81.13l.53.2.21.07.12,0,1.57-.22c.09,0,.13.08.13.15a.78.78,0,0,1-.1.3.68.68,0,0,1-.22.3l-.41,0-.55,0s-.06,0-.06,0a2.77,2.77,0,0,1,.23.44,2.29,2.29,0,0,1,.17.9,1.85,1.85,0,0,1-.32,1,2.61,2.61,0,0,1-.89.82,2.51,2.51,0,0,1-1.26.32,2.68,2.68,0,0,1-.45-.05,2.39,2.39,0,0,1-.38-.09,1.39,1.39,0,0,0-.36.29.52.52,0,0,0-.18.36c0,.07.08.17.23.31a.93.93,0,0,0,.66.21Zm-.67,1h-.44l-.59,0a1.36,1.36,0,0,0-.34,0,4.77,4.77,0,0,0-.55.42.77.77,0,0,0-.32.56,1.53,1.53,0,0,0,.51,1.17,2,2,0,0,0,1.44.47,2.5,2.5,0,0,0,1-.22,2.68,2.68,0,0,0,.86-.59,1.08,1.08,0,0,0,.34-.76.79.79,0,0,0-.19-.47,1.55,1.55,0,0,0-.62-.46A2.69,2.69,0,0,0,213,23.57Zm-.59-6a1,1,0,0,0-.7.25,1.67,1.67,0,0,0-.44.65,2.24,2.24,0,0,0-.15.81,2.27,2.27,0,0,0,.17.86,1.72,1.72,0,0,0,.48.69,1.12,1.12,0,0,0,.76.27,1,1,0,0,0,.68-.24,1.52,1.52,0,0,0,.42-.63,2.17,2.17,0,0,0,.15-.79,2.64,2.64,0,0,0-.15-.89,1.73,1.73,0,0,0-.45-.71A1.11,1.11,0,0,0,212.41,17.53Z"/><path class="cls-1" d="M220.58,17.09a1.87,1.87,0,0,1,1.2.33,1.74,1.74,0,0,1,.55,1,9.37,9.37,0,0,1,.14,1.75v1.62c0,.22,0,.43,0,.62a1.47,1.47,0,0,0,.06.46c0,.05.1.1.22.14a2.57,2.57,0,0,0,.4.08l.31,0a.36.36,0,0,1,.05.21.25.25,0,0,1-.05.21l-.79-.05c-.23,0-.49,0-.78,0s-.53,0-.76,0l-.78.05c-.05,0-.06-.11-.06-.21a.44.44,0,0,1,.06-.21l.29,0a2.7,2.7,0,0,0,.41-.08c.13,0,.2-.09.21-.14a1.78,1.78,0,0,0,.07-.46V20.34a6.73,6.73,0,0,0-.12-1.43,1.21,1.21,0,0,0-.43-.74,1.49,1.49,0,0,0-.88-.22,1.25,1.25,0,0,0-.6.17,3.4,3.4,0,0,0-.56.37q-.24.2-.24.27v3c0,.22,0,.43,0,.62a1.44,1.44,0,0,0,.07.46c0,.05.09.1.21.14a2.48,2.48,0,0,0,.41.08l.31,0a.46.46,0,0,1,0,.21.3.3,0,0,1,0,.21l-.8-.05c-.23,0-.49,0-.78,0s-.53,0-.75,0l-.79.05a.25.25,0,0,1-.05-.21.36.36,0,0,1,.05-.21l.3,0a2.57,2.57,0,0,0,.4-.08c.13,0,.2-.09.21-.14a1.44,1.44,0,0,0,.07-.46c0-.19,0-.4,0-.62V15.34c0-.1,0-.23,0-.39a.9.9,0,0,0-.07-.37c0-.11-.14-.18-.32-.21a3.24,3.24,0,0,0-.56,0s0-.06,0-.19,0-.19,0-.2a5.59,5.59,0,0,0,1.08-.22,7.22,7.22,0,0,0,1-.36.12.12,0,0,1,.11.08.27.27,0,0,1,.06.16,5.23,5.23,0,0,0-.17,1.27v3.31s0,0,.05,0l0,0a3.47,3.47,0,0,1,.49-.42,4.17,4.17,0,0,1,.74-.45A1.64,1.64,0,0,1,220.58,17.09Z"/><path class="cls-1" d="M226,17.18h1.89c.05,0,.07.06.07.17a.61.61,0,0,1-.21.43H226v3.84c0,.8.32,1.2,1,1.2a1.33,1.33,0,0,0,.6-.14,2.73,2.73,0,0,0,.35-.19s0,0,0,.09a.3.3,0,0,1-.06.22,3.15,3.15,0,0,1-.32.32,2.23,2.23,0,0,1-.52.34,1.45,1.45,0,0,1-.66.15,2,2,0,0,1-.72-.13,1.17,1.17,0,0,1-.58-.48,1.8,1.8,0,0,1-.22-1V17.78H224s0,0,0-.05a.45.45,0,0,1,0-.08.36.36,0,0,1,.09-.14c.06-.08.16-.19.29-.33h.54v-.91c.1-.11.21-.24.35-.38l.36-.41.18-.2a.2.2,0,0,1,.15-.06c.05,0,.08,0,.08,0Z"/><path class="cls-1" d="M235.62,23.61a2.72,2.72,0,0,1-.5-.08l-.57-.14-.12,0a2.73,2.73,0,0,0-.41-.1.76.76,0,0,0-.42,0s-.08-.05-.13-.13a.55.55,0,0,1-.06-.19,1.93,1.93,0,0,0,.14-.54c0-.21,0-.39,0-.54V15.34c0-.1,0-.23,0-.39a1.1,1.1,0,0,0-.07-.37q-.06-.16-.33-.21a3.45,3.45,0,0,0-.57,0s0-.06,0-.19,0-.19,0-.2a5.59,5.59,0,0,0,1.08-.22,6.91,6.91,0,0,0,1-.36.12.12,0,0,1,.11.08.27.27,0,0,1,.06.16,5.23,5.23,0,0,0-.17,1.27v2.88a.69.69,0,0,0,0,.13c0,.05,0,.06.07,0l.43-.28a7.38,7.38,0,0,1,.69-.35,1.69,1.69,0,0,1,.65-.17,2.4,2.4,0,0,1,1.16.28,2.64,2.64,0,0,1,.84.72,3.46,3.46,0,0,1,.51,1,3.52,3.52,0,0,1,.17,1,3.43,3.43,0,0,1-.47,1.76,3.58,3.58,0,0,1-3.16,1.76Zm.24-5.65a1.76,1.76,0,0,0-.63.14,1.71,1.71,0,0,0-.44.25.21.21,0,0,0-.08.17v3.55a.81.81,0,0,0,.21.55,1.41,1.41,0,0,0,.52.37,1.77,1.77,0,0,0,.63.13,1.51,1.51,0,0,0,1-.37,2.56,2.56,0,0,0,.71-.93,2.62,2.62,0,0,0,.27-1.15,3.08,3.08,0,0,0-.59-2A1.93,1.93,0,0,0,235.86,18Z"/><path class="cls-1" d="M241.3,17.29c.28,0,.57,0,.85,0l.62-.05a.51.51,0,0,1,0,.24c0,.12,0,.18-.08.18l-.22,0a1.86,1.86,0,0,0-.34.06c-.1,0-.16.1-.16.18a.14.14,0,0,0,0,.06l1.56,3.95c.16-.43.3-.81.43-1.14l.42-1.09c.15-.39.3-.75.44-1.09a.9.9,0,0,0,.07-.27,1.56,1.56,0,0,0,0-.2.37.37,0,0,0-.23-.35,1.16,1.16,0,0,0-.6-.13s-.06-.06-.06-.18a.35.35,0,0,1,.06-.24l.51.05c.24,0,.5,0,.8,0s.52,0,.72,0l.51-.05a.38.38,0,0,1,0,.24c0,.12,0,.18-.07.18l-.25.05a1.93,1.93,0,0,0-.39.15.63.63,0,0,0-.29.31c-.22.52-.42,1-.59,1.41s-.35.83-.51,1.22-.34.81-.51,1.23-.37.9-.58,1.42-.35.9-.52,1.35a6.45,6.45,0,0,1-.65,1.25,2.05,2.05,0,0,1-.57.6,1.27,1.27,0,0,1-.7.23.84.84,0,0,1-.42-.12.54.54,0,0,1-.21-.51.75.75,0,0,1,.05-.26.7.7,0,0,1,.11-.18,5.4,5.4,0,0,0,.61,0,1.15,1.15,0,0,0,.51-.22,2.74,2.74,0,0,0,.55-.57,2.88,2.88,0,0,0,.27-.49c.1-.21.19-.42.27-.62a2.69,2.69,0,0,0,.15-.37c-.27-.7-.53-1.35-.77-2s-.48-1.2-.72-1.78-.52-1.19-.81-1.81a.43.43,0,0,0-.37-.26l-.41,0h0s0-.06,0-.2a.88.88,0,0,1,0-.22l.62.05C240.72,17.28,241,17.29,241.3,17.29Z"/><path class="cls-1" d="M254.88,13.77a4.18,4.18,0,0,1,.77.05,4.75,4.75,0,0,1,.63.14l.8.21c.06.38.11.77.15,1.18s0,.7.06.9,0,.09-.1.12l-.2,0a.21.21,0,0,1-.16-.06,2.36,2.36,0,0,0-.18-.63,2.8,2.8,0,0,0-.41-.68,2.36,2.36,0,0,0-.63-.55,1.77,1.77,0,0,0-1.78,0,1.46,1.46,0,0,0-.49.62,2,2,0,0,0-.15.74,1.54,1.54,0,0,0,.3,1,3.27,3.27,0,0,0,.78.69l1,.62.79.49a8,8,0,0,1,.84.6,2.8,2.8,0,0,1,.66.76,1.81,1.81,0,0,1,.25,1,2.38,2.38,0,0,1-.44,1.41,3,3,0,0,1-1.14.94,3.41,3.41,0,0,1-1.47.34,6,6,0,0,1-1.42-.17l-1.22-.27c-.06-.29-.11-.6-.16-.93s-.08-.62-.1-.87,0-.4,0-.46a1.09,1.09,0,0,1,.17-.13.49.49,0,0,1,.2,0,.16.16,0,0,1,.17.13,3.44,3.44,0,0,0,.19.58,3.35,3.35,0,0,0,.41.76,2.5,2.5,0,0,0,.72.65,2.22,2.22,0,0,0,1.11.26,1.78,1.78,0,0,0,1.22-.47,1.7,1.7,0,0,0,.53-1.33,1.46,1.46,0,0,0-.28-1,2.38,2.38,0,0,0-.72-.59l-.95-.54c-.37-.22-.75-.47-1.15-.73a4.23,4.23,0,0,1-1-.94,2.05,2.05,0,0,1-.41-1.27,2.26,2.26,0,0,1,.42-1.36,2.74,2.74,0,0,1,1.07-.89A3.17,3.17,0,0,1,254.88,13.77Z"/><path class="cls-1" d="M259.11,22.85a.74.74,0,0,1,.24-.56.82.82,0,0,1,.58-.24.72.72,0,0,1,.55.24.77.77,0,0,1,.23.56.81.81,0,0,1-.23.57.7.7,0,0,1-.55.25.79.79,0,0,1-.58-.25A.78.78,0,0,1,259.11,22.85Z"/><path class="cls-1" d="M264.52,13.84h1.11c.14.23.39.55.71,1s.72.9,1.16,1.43l1.36,1.66c.47.57.93,1.13,1.37,1.68s.81,1.06,1.13,1.51V15.53c0-.26,0-.46,0-.61a.8.8,0,0,0-.14-.4s-.11-.1-.27-.15a3,3,0,0,0-.47-.1,2,2,0,0,0-.36,0,.34.34,0,0,1-.06-.22,1.78,1.78,0,0,1,0-.2l.81,0,.86,0h.57l.45,0,.56,0a.6.6,0,0,1,0,.18.41.41,0,0,1,0,.24l-.35,0a2.71,2.71,0,0,0-.51.1.51.51,0,0,0-.3.16.77.77,0,0,0-.12.37c0,.14,0,.35,0,.63V22.2c0,.21,0,.41,0,.61s0,.42,0,.68a.11.11,0,0,1-.09.08h-.11a.52.52,0,0,1-.2-.07,1.18,1.18,0,0,1-.31-.27L265,15.17v6.66c0,.26,0,.46,0,.61a1.06,1.06,0,0,0,.13.39.46.46,0,0,0,.26.14,3.23,3.23,0,0,0,.47.12,2.12,2.12,0,0,0,.37,0,.41.41,0,0,1,0,.21.58.58,0,0,1,0,.21l-.8-.05c-.25,0-.54,0-.86,0H264l-.45,0-.56,0a.56.56,0,0,1,0-.18.42.42,0,0,1,0-.24,2.17,2.17,0,0,0,.34,0,4,4,0,0,0,.5-.1c.17,0,.27-.1.3-.16a.77.77,0,0,0,.12-.37,4.57,4.57,0,0,0,0-.62V15.49a4.85,4.85,0,0,0,0-.63.77.77,0,0,0-.12-.37c0-.06-.13-.12-.3-.16a2.77,2.77,0,0,0-.5-.1l-.34,0a.42.42,0,0,1,0-.24.56.56,0,0,1,0-.18l.82,0Z"/><path class="cls-1" d="M274.47,22.85a.74.74,0,0,1,.24-.56.82.82,0,0,1,.58-.24.76.76,0,0,1,.56.24.8.8,0,0,1,.22.56.85.85,0,0,1-.22.57.73.73,0,0,1-.56.25.79.79,0,0,1-.58-.25A.78.78,0,0,1,274.47,22.85Z"/><path class="cls-1" d="M289,20.94v-.18c0-.19,0-.36,0-.51a1.37,1.37,0,0,0-.05-.39c0-.05-.09-.1-.23-.14a3.5,3.5,0,0,0-.45-.07,2.48,2.48,0,0,0-.33,0,.46.46,0,0,1-.05-.21.3.3,0,0,1,.05-.21l.87,0q.42,0,.84,0c.29,0,.56,0,.82,0l.83,0a.25.25,0,0,1,.05.21.36.36,0,0,1-.05.21,2.16,2.16,0,0,0-.31,0,2.63,2.63,0,0,0-.42.07c-.13,0-.21.09-.23.14a2,2,0,0,0-.07.47V22a.7.7,0,0,0,.07.36.46.46,0,0,1,.08.24.14.14,0,0,1,0,.1,1.29,1.29,0,0,1-.24.15c-.21.11-.45.23-.72.35a5,5,0,0,1-1,.3,8.65,8.65,0,0,1-1.59.12,4.93,4.93,0,0,1-2-.39,4.65,4.65,0,0,1-1.55-1,4.85,4.85,0,0,1-1-1.53,4.94,4.94,0,0,1-.35-1.84,5,5,0,0,1,.37-1.94,5.12,5.12,0,0,1,1-1.61,4.69,4.69,0,0,1,1.57-1.1,4.8,4.8,0,0,1,2-.4c.48,0,1,0,1.51.06a11.25,11.25,0,0,1,1.6.24c.07.41.12.75.16,1s.08.52.11.75a3.75,3.75,0,0,1,.06.39s0,.08-.09.12a.46.46,0,0,1-.23.06.34.34,0,0,1-.18,0,3.45,3.45,0,0,0-.14-.51,2.62,2.62,0,0,0-.4-.72,2.41,2.41,0,0,0-.85-.64,3.55,3.55,0,0,0-1.47-.26,2.92,2.92,0,0,0-1.47.37,3.55,3.55,0,0,0-1.13,1,4.77,4.77,0,0,0-.72,1.38,5,5,0,0,0-.25,1.52,5.86,5.86,0,0,0,.24,1.67,4.69,4.69,0,0,0,.7,1.5,3.53,3.53,0,0,0,1.18,1.06,3.46,3.46,0,0,0,1.67.4,3.21,3.21,0,0,0,1-.16c.29-.11.55-.21.77-.32.05,0,.08-.05.08-.09s0-.07,0-.12Z"/><path class="cls-1" d="M295.42,17.08a3.21,3.21,0,0,1,1.67.42,3,3,0,0,1,1.08,1.14,3.47,3.47,0,0,1,.38,1.63,3.53,3.53,0,0,1-.41,1.7,3.13,3.13,0,0,1-1.11,1.2,2.94,2.94,0,0,1-1.58.44,3.18,3.18,0,0,1-1.68-.43A2.87,2.87,0,0,1,292.68,22a3.71,3.71,0,0,1,0-3.33,3.21,3.21,0,0,1,1.12-1.19A3,3,0,0,1,295.42,17.08Zm-.17.49a1.34,1.34,0,0,0-1,.37,2.08,2.08,0,0,0-.54.94,4.42,4.42,0,0,0-.16,1.21,4.62,4.62,0,0,0,.23,1.41,2.85,2.85,0,0,0,.69,1.17,1.5,1.5,0,0,0,1.12.46,1.3,1.3,0,0,0,1-.37,2.05,2.05,0,0,0,.53-1,4.4,4.4,0,0,0,.17-1.2,4.26,4.26,0,0,0-.24-1.41,3,3,0,0,0-.69-1.16A1.49,1.49,0,0,0,295.25,17.57Z"/><path class="cls-1" d="M300.77,19.88a3.22,3.22,0,0,0,.31,1.56,2.23,2.23,0,0,0,.88.94,2.48,2.48,0,0,0,1.2.3,2,2,0,0,0,.74-.14,2.23,2.23,0,0,0,.55-.33,2.58,2.58,0,0,0,.32-.29l.06,0a.18.18,0,0,1,.06.14.54.54,0,0,1-.09.27,3.16,3.16,0,0,1-.42.5,2.67,2.67,0,0,1-.72.52,2.18,2.18,0,0,1-1,.23,2.83,2.83,0,0,1-2.54-1.5,3.2,3.2,0,0,1-.38-1.55,3.67,3.67,0,0,1,.26-1.37,4.16,4.16,0,0,1,.69-1.11,3.61,3.61,0,0,1,.94-.74,2.11,2.11,0,0,1,1-.27,2.28,2.28,0,0,1,1.08.23,2,2,0,0,1,.68.55,2.08,2.08,0,0,1,.34.66,1.89,1.89,0,0,1,.1.56,1.3,1.3,0,0,1-.07.49.32.32,0,0,1-.29.2l-.53,0-.91,0-1,0-.84,0Zm.07-.54h2.38a.4.4,0,0,0,.24-.07.38.38,0,0,0,.11-.27,1.33,1.33,0,0,0-.11-.51,1.61,1.61,0,0,0-.38-.6.93.93,0,0,0-.71-.27,1.06,1.06,0,0,0-.76.26,1.85,1.85,0,0,0-.48.6,3.4,3.4,0,0,0-.24.6A1,1,0,0,0,300.84,19.34Z"/><path class="cls-1" d="M310.15,17.09a1.84,1.84,0,0,1,1.19.33,1.68,1.68,0,0,1,.55,1,8.58,8.58,0,0,1,.14,1.75v1.62c0,.22,0,.43,0,.62a1.78,1.78,0,0,0,.07.46c0,.05.09.1.22.14a2.24,2.24,0,0,0,.39.08l.3,0a.44.44,0,0,1,.06.21.29.29,0,0,1-.06.21l-.78-.05c-.23,0-.49,0-.78,0s-.53,0-.76,0l-.79.05a.29.29,0,0,1-.06-.21.44.44,0,0,1,.06-.21l.3,0a2.61,2.61,0,0,0,.42-.08c.13,0,.19-.09.21-.14a1.84,1.84,0,0,0,.06-.46c0-.19,0-.4,0-.62V20.34a6.73,6.73,0,0,0-.12-1.43,1.25,1.25,0,0,0-.43-.74,1.52,1.52,0,0,0-.89-.22,1.19,1.19,0,0,0-.59.17,3,3,0,0,0-.56.37q-.24.2-.24.27v3c0,.22,0,.43,0,.62a1.47,1.47,0,0,0,.06.46c0,.05.09.1.22.14a2.36,2.36,0,0,0,.4.08l.3,0a.46.46,0,0,1,.05.21.3.3,0,0,1-.05.21l-.79-.05c-.22,0-.48,0-.77,0s-.54,0-.77,0l-.79.05a.25.25,0,0,1-.05-.21.36.36,0,0,1,.05-.21l.31,0a2.7,2.7,0,0,0,.41-.08c.13,0,.2-.09.21-.14a1.78,1.78,0,0,0,.07-.46v-3.7a1.27,1.27,0,0,0-.07-.41c0-.09-.12-.15-.26-.19a3,3,0,0,0-.42-.06h-.26a.38.38,0,0,1,0-.18c0-.1,0-.17,0-.21a8.27,8.27,0,0,0,1.1-.23,4.55,4.55,0,0,0,1-.39s.08,0,.11.09a.37.37,0,0,1,.05.15,1.34,1.34,0,0,1,0,.23c0,.13,0,.25-.05.37s0,.2,0,.24,0,.06,0,.06l.05,0a3.92,3.92,0,0,1,.48-.42,4.66,4.66,0,0,1,.75-.45A1.64,1.64,0,0,1,310.15,17.09Z"/><path class="cls-1" d="M315.63,21.81c0,.22,0,.43,0,.62a1.44,1.44,0,0,0,.07.46c0,.05.09.1.21.14a2.48,2.48,0,0,0,.41.08l.3,0a.44.44,0,0,1,.06.21.29.29,0,0,1-.06.21l-.79-.05c-.23,0-.49,0-.78,0s-.53,0-.76,0l-.78.05a.25.25,0,0,1,0-.21.36.36,0,0,1,0-.21l.3,0a2.57,2.57,0,0,0,.4-.08c.13,0,.2-.09.21-.14a1.78,1.78,0,0,0,.07-.46c0-.19,0-.4,0-.62V15.34c0-.11,0-.24,0-.4a1.09,1.09,0,0,0-.07-.36.37.37,0,0,0-.32-.21,3.33,3.33,0,0,0-.56,0s0-.06,0-.19,0-.19,0-.2a5.59,5.59,0,0,0,1.08-.22,7.22,7.22,0,0,0,1-.36.12.12,0,0,1,.11.08.27.27,0,0,1,.06.16,5.23,5.23,0,0,0-.17,1.27v5.21a1.91,1.91,0,0,0,.52-.32l.69-.57,1-.8c.25-.21.38-.35.38-.42s-.05-.13-.14-.16a1.55,1.55,0,0,0-.31-.07,1.25,1.25,0,0,0-.24,0,.33.33,0,0,1-.05-.24q0-.16.06-.18l.69.05c.25,0,.49,0,.72,0a9.43,9.43,0,0,0,1.29-.07.39.39,0,0,1,0,.22.56.56,0,0,1,0,.2,2.64,2.64,0,0,0-.52.09,1.84,1.84,0,0,0-.6.25l-.32.23-.61.45-.73.57-.71.56c.37.39.73.79,1.09,1.2l1,1.06c.28.31.48.51.59.61a1.58,1.58,0,0,0,.66.33,2.42,2.42,0,0,0,.67.07.32.32,0,0,1,0,.16.34.34,0,0,1,0,.19,1.63,1.63,0,0,1-.35.06,5.68,5.68,0,0,1-.59,0,2.58,2.58,0,0,1-1.14-.24,2.15,2.15,0,0,1-.66-.41l-.73-.78-.69-.75c-.24-.26-.47-.5-.67-.73a.71.71,0,0,0-.23-.14Z"/><path class="cls-1" d="M324.29,17.12a1.32,1.32,0,0,1,.79.27,2,2,0,0,1,.59.72,2.25,2.25,0,0,1,.23,1v3a1.07,1.07,0,0,0,.1.49.37.37,0,0,0,.34.2.54.54,0,0,0,.33-.09l.15-.1a.05.05,0,0,1,.05,0,.25.25,0,0,1,0,.08.51.51,0,0,1-.07.28l-.29.21a4.49,4.49,0,0,1-.42.24,1,1,0,0,1-.38.11.74.74,0,0,1-.57-.32,1.68,1.68,0,0,1-.32-.64l-.28.22c-.14.11-.31.22-.5.34l-.56.3a1.24,1.24,0,0,1-.47.13,1.7,1.7,0,0,1-1.22-.49,1.61,1.61,0,0,1-.49-1.19,1.19,1.19,0,0,1,.25-.77,1.13,1.13,0,0,1,.48-.42l.94-.32,1-.34c.3-.1.52-.19.66-.25a.27.27,0,0,0,.15-.11.75.75,0,0,0,0-.26v-.39a1.47,1.47,0,0,0-.17-.66,1.67,1.67,0,0,0-.45-.54,1,1,0,0,0-.64-.21.66.66,0,0,0-.56.24,1.54,1.54,0,0,0-.25.67c-.09.47-.32.71-.69.71a.43.43,0,0,1-.37-.2.8.8,0,0,1-.13-.42.86.86,0,0,1,0-.17.49.49,0,0,1,.08-.19,5.43,5.43,0,0,1,.64-.49,5,5,0,0,1,1-.5A2.9,2.9,0,0,1,324.29,17.12Zm-.78,5.71a1.53,1.53,0,0,0,.56-.12,2.42,2.42,0,0,0,.51-.26c.14-.09.21-.17.21-.22v-2l-.72.22-.65.21a1.63,1.63,0,0,0-.64.44,1,1,0,0,0-.26.7,1,1,0,0,0,.29.72A.92.92,0,0,0,323.51,22.83Z"/><path class="cls-2" d="M42.33,29.44a.28.28,0,0,1,.24.1.36.36,0,0,1,.09.26.39.39,0,0,1-.09.28.34.34,0,0,1-.48,0A.39.39,0,0,1,42,29.8a.36.36,0,0,1,.09-.26A.28.28,0,0,1,42.33,29.44Zm.23,1.68v4.53h-.47V31.12Z"/><path class="cls-2" d="M46.09,31a1.63,1.63,0,0,1,1.19.4,1.72,1.72,0,0,1,.41,1.26v3h-.48V32.72a1.36,1.36,0,0,0-.3-1,1.19,1.19,0,0,0-.88-.3,1.38,1.38,0,0,0-1.11.43,1.94,1.94,0,0,0-.38,1.3v2.47h-.48V31.12h.39l.07.78h0a1.62,1.62,0,0,1,.34-.44,1.41,1.41,0,0,1,.52-.31A1.83,1.83,0,0,1,46.09,31Z"/><path class="cls-2" d="M52.63,35.32a2,2,0,0,0,.35,0,1.67,1.67,0,0,0,.3-.07v.39a1.12,1.12,0,0,1-.32.09,2.6,2.6,0,0,1-.4,0,1.26,1.26,0,0,1-.64-.14.93.93,0,0,1-.41-.44,1.84,1.84,0,0,1-.14-.76V31.51h-.66v-.28l.66-.15.18-1h.31v1.09h1.4v.39h-1.4v2.86a1.11,1.11,0,0,0,.19.71A.67.67,0,0,0,52.63,35.32Z"/><path class="cls-2" d="M54.72,31.25c0,.12,0,.23,0,.33s0,.22,0,.33h0a1.45,1.45,0,0,1,.33-.45,1.5,1.5,0,0,1,.52-.31,2.06,2.06,0,0,1,.68-.11,2.09,2.09,0,0,1,.88.17,1.18,1.18,0,0,1,.54.54,2.13,2.13,0,0,1,.18.94v3h-.47V32.72a1.36,1.36,0,0,0-.3-1,1.19,1.19,0,0,0-.88-.3,1.58,1.58,0,0,0-.82.19,1.14,1.14,0,0,0-.5.58,2.46,2.46,0,0,0-.17,1v2.47h-.48V29.17h.48Z"/><path class="cls-2" d="M61,31a1.59,1.59,0,0,1,1.57,1,2.77,2.77,0,0,1,.2,1.08v.32H59.55A2,2,0,0,0,60,34.83a1.51,1.51,0,0,0,1.2.48,4,4,0,0,0,.74-.07A4.08,4.08,0,0,0,62.6,35v.44a2.62,2.62,0,0,1-.67.22,3.58,3.58,0,0,1-.78.07A2.14,2.14,0,0,1,60,35.45a1.75,1.75,0,0,1-.72-.8,2.93,2.93,0,0,1-.24-1.23,3.17,3.17,0,0,1,.23-1.23,2,2,0,0,1,.67-.85A1.8,1.8,0,0,1,61,31Zm0,.41a1.33,1.33,0,0,0-1,.41A2,2,0,0,0,59.56,33h2.73a2.29,2.29,0,0,0-.14-.83,1.27,1.27,0,0,0-.41-.57A1.25,1.25,0,0,0,61,31.44Z"/><path class="cls-2" d="M68,35.65h-.49V30h-2v-.44h4.41V30H68Z"/><path class="cls-2" d="M72.18,31l.32,0a1.24,1.24,0,0,1,.29.06l-.07.44-.27-.06-.3,0a1.23,1.23,0,0,0-.55.12,1.18,1.18,0,0,0-.43.34,1.56,1.56,0,0,0-.27.53,2.39,2.39,0,0,0-.1.69v2.49h-.48V31.12h.41l0,.85h0a1.72,1.72,0,0,1,.31-.48,1.43,1.43,0,0,1,.46-.33A1.48,1.48,0,0,1,72.18,31Z"/><path class="cls-2" d="M75.11,31a1.55,1.55,0,0,1,1.14.37,1.64,1.64,0,0,1,.37,1.2v3h-.36l-.09-.77h0a2.38,2.38,0,0,1-.38.45,1.45,1.45,0,0,1-.5.3,2.12,2.12,0,0,1-.72.1,1.72,1.72,0,0,1-.74-.15,1.06,1.06,0,0,1-.48-.43,1.22,1.22,0,0,1-.17-.69,1.12,1.12,0,0,1,.55-1A3.31,3.31,0,0,1,75.32,33l.83,0v-.33a1.37,1.37,0,0,0-.27-1,1.09,1.09,0,0,0-.8-.27,2.52,2.52,0,0,0-.67.09,3.39,3.39,0,0,0-.64.25l-.15-.39a4.3,4.3,0,0,1,.69-.26A3,3,0,0,1,75.11,31Zm.26,2.35a2.91,2.91,0,0,0-1.29.3.87.87,0,0,0-.42.78.81.81,0,0,0,.26.64,1.14,1.14,0,0,0,.72.21,1.47,1.47,0,0,0,1.11-.4,1.57,1.57,0,0,0,.4-1.12v-.44Z"/><path class="cls-2" d="M79.7,35.73a1.71,1.71,0,0,1-1.4-.58,2.59,2.59,0,0,1-.49-1.72,2.75,2.75,0,0,1,.51-1.79A1.76,1.76,0,0,1,79.74,31a1.62,1.62,0,0,1,.66.12,1.46,1.46,0,0,1,.49.31,1.52,1.52,0,0,1,.31.44h0c0-.14,0-.29,0-.45s0-.31,0-.44V29.17h.48v6.48h-.39l-.07-.79h0a1.85,1.85,0,0,1-.32.43,1.35,1.35,0,0,1-.48.32A1.86,1.86,0,0,1,79.7,35.73Zm.06-.41a1.26,1.26,0,0,0,1.12-.48,2.43,2.43,0,0,0,.33-1.38v-.08A2.59,2.59,0,0,0,80.88,32a1.19,1.19,0,0,0-1.09-.5,1.29,1.29,0,0,0-1.11.51,2.51,2.51,0,0,0-.37,1.48,2.31,2.31,0,0,0,.36,1.4A1.26,1.26,0,0,0,79.76,35.32Z"/><path class="cls-2" d="M83.41,29.44a.3.3,0,0,1,.25.1.35.35,0,0,1,.08.26.39.39,0,0,1-.08.28.3.3,0,0,1-.25.1.3.3,0,0,1-.24-.1.44.44,0,0,1-.08-.28.4.4,0,0,1,.08-.26A.3.3,0,0,1,83.41,29.44Zm.24,1.68v4.53h-.48V31.12Z"/><path class="cls-2" d="M86.43,35.32a2,2,0,0,0,.35,0,1.67,1.67,0,0,0,.3-.07v.39a1.12,1.12,0,0,1-.32.09,2.5,2.5,0,0,1-.4,0,1.29,1.29,0,0,1-.64-.14.86.86,0,0,1-.4-.44,1.69,1.69,0,0,1-.14-.76V31.51h-.67v-.28l.67-.15.17-1h.31v1.09h1.4v.39h-1.4v2.86a1.11,1.11,0,0,0,.19.71A.69.69,0,0,0,86.43,35.32Z"/><path class="cls-2" d="M88.28,29.44a.29.29,0,0,1,.25.1.36.36,0,0,1,.09.26.39.39,0,0,1-.09.28.29.29,0,0,1-.25.1.26.26,0,0,1-.23-.1A.39.39,0,0,1,88,29.8a.36.36,0,0,1,.09-.26A.26.26,0,0,1,88.28,29.44Zm.24,1.68v4.53h-.47V31.12Z"/><path class="cls-2" d="M93.81,33.38a3.23,3.23,0,0,1-.13,1,2.18,2.18,0,0,1-.39.74,1.69,1.69,0,0,1-.64.48,2.32,2.32,0,0,1-1.72,0,1.66,1.66,0,0,1-.63-.48,2.08,2.08,0,0,1-.4-.75,2.93,2.93,0,0,1-.14-1A3,3,0,0,1,90,32.12a1.81,1.81,0,0,1,.71-.81,2.07,2.07,0,0,1,1.1-.28,2,2,0,0,1,1.1.29,1.85,1.85,0,0,1,.67.83A2.94,2.94,0,0,1,93.81,33.38Zm-3.55,0a2.88,2.88,0,0,0,.16,1,1.35,1.35,0,0,0,1.36.92,1.49,1.49,0,0,0,.87-.25,1.46,1.46,0,0,0,.5-.68,2.86,2.86,0,0,0,.16-1,3,3,0,0,0-.15-1,1.3,1.3,0,0,0-1.36-.93,1.37,1.37,0,0,0-1.16.51A2.35,2.35,0,0,0,90.26,33.38Z"/><path class="cls-2" d="M97.08,31a1.61,1.61,0,0,1,1.18.4,1.72,1.72,0,0,1,.41,1.26v3h-.48V32.72a1.36,1.36,0,0,0-.3-1,1.18,1.18,0,0,0-.87-.3,1.39,1.39,0,0,0-1.12.43,1.94,1.94,0,0,0-.38,1.3v2.47h-.47V31.12h.38l.08.78h0a1.62,1.62,0,0,1,.34-.44,1.6,1.6,0,0,1,.52-.31A1.85,1.85,0,0,1,97.08,31Z"/><path class="cls-2" d="M106.12,33.38a3.23,3.23,0,0,1-.13,1,2.18,2.18,0,0,1-.39.74,1.72,1.72,0,0,1-.65.48,2,2,0,0,1-.87.17,2.06,2.06,0,0,1-.84-.16,1.77,1.77,0,0,1-.64-.48,2.24,2.24,0,0,1-.4-.75,3.23,3.23,0,0,1-.13-1,3,3,0,0,1,.24-1.26,1.81,1.81,0,0,1,.71-.81,2,2,0,0,1,1.1-.28,2,2,0,0,1,1.09.29,1.81,1.81,0,0,1,.68.83A2.94,2.94,0,0,1,106.12,33.38Zm-3.55,0a2.88,2.88,0,0,0,.16,1,1.33,1.33,0,0,0,1.36.92,1.44,1.44,0,0,0,.86-.25,1.42,1.42,0,0,0,.51-.68,3.1,3.1,0,0,0,.16-1,3,3,0,0,0-.15-1,1.53,1.53,0,0,0-.49-.69,1.45,1.45,0,0,0-.87-.24A1.36,1.36,0,0,0,103,32,2.35,2.35,0,0,0,102.57,33.38Z"/><path class="cls-2" d="M109.12,31.51H108v4.14h-.49V31.51h-.83v-.27l.83-.13v-.46a2.09,2.09,0,0,1,.15-.85,1,1,0,0,1,.45-.5,1.61,1.61,0,0,1,.76-.17,2.64,2.64,0,0,1,.79.13l-.12.4a2.45,2.45,0,0,0-.32-.09,2.07,2.07,0,0,0-.35,0,.82.82,0,0,0-.67.26,1.44,1.44,0,0,0-.2.85v.47h1.08Z"/><path class="cls-2" d="M115.67,34.07a1.54,1.54,0,0,1-.27.92,1.76,1.76,0,0,1-.74.56,3.08,3.08,0,0,1-1.09.18,4.55,4.55,0,0,1-.67,0,3.79,3.79,0,0,1-.54-.09,3.52,3.52,0,0,1-.45-.13V35a5.58,5.58,0,0,0,.75.23,4,4,0,0,0,.94.1,2.27,2.27,0,0,0,.82-.14,1.23,1.23,0,0,0,.56-.4,1.08,1.08,0,0,0,.2-.66,1,1,0,0,0-.17-.6,1.34,1.34,0,0,0-.51-.4,6.08,6.08,0,0,0-.88-.36,5.8,5.8,0,0,1-.69-.28,2.16,2.16,0,0,1-.51-.34,1.26,1.26,0,0,1-.33-.46A1.75,1.75,0,0,1,112,31a1.38,1.38,0,0,1,.26-.84,1.58,1.58,0,0,1,.69-.52,2.61,2.61,0,0,1,1-.18,4.63,4.63,0,0,1,.85.08,4,4,0,0,1,.76.24l-.17.43a3.77,3.77,0,0,0-.72-.23,3.63,3.63,0,0,0-.73-.08,1.9,1.9,0,0,0-.75.13,1.1,1.1,0,0,0-.5.36,1,1,0,0,0-.18.6,1.09,1.09,0,0,0,.17.63,1.36,1.36,0,0,0,.5.4,8.51,8.51,0,0,0,.79.32,5.89,5.89,0,0,1,.93.4,1.64,1.64,0,0,1,.59.51A1.38,1.38,0,0,1,115.67,34.07Z"/><path class="cls-2" d="M118.46,31a1.55,1.55,0,0,1,1.14.37,1.64,1.64,0,0,1,.37,1.2v3h-.36l-.09-.77h0a2.38,2.38,0,0,1-.38.45,1.45,1.45,0,0,1-.5.3,2.12,2.12,0,0,1-.72.1,1.72,1.72,0,0,1-.74-.15,1.06,1.06,0,0,1-.48-.43,1.22,1.22,0,0,1-.17-.69,1.12,1.12,0,0,1,.55-1,3.31,3.31,0,0,1,1.61-.41l.83,0v-.33a1.37,1.37,0,0,0-.27-1,1.09,1.09,0,0,0-.8-.27,2.52,2.52,0,0,0-.67.09,3.39,3.39,0,0,0-.64.25L117,31.4a4.3,4.3,0,0,1,.69-.26A3,3,0,0,1,118.46,31Zm.26,2.35a2.91,2.91,0,0,0-1.29.3.87.87,0,0,0-.42.78.81.81,0,0,0,.26.64,1.14,1.14,0,0,0,.72.21,1.47,1.47,0,0,0,1.11-.4,1.57,1.57,0,0,0,.4-1.12v-.44Z"/><path class="cls-2" d="M120.67,31.12h.52l1.07,2.81c.07.17.12.32.17.46l.14.4c0,.12.07.24.1.34h0c0-.13.09-.3.16-.51s.15-.43.24-.68l1.05-2.82h.52l-2,5.34a3.8,3.8,0,0,1-.34.67,1.38,1.38,0,0,1-.44.43,1.21,1.21,0,0,1-.62.15l-.29,0-.25-.06v-.41l.22.05.26,0a.82.82,0,0,0,.42-.1,1,1,0,0,0,.32-.29,2.33,2.33,0,0,0,.24-.5l.3-.77Z"/><path class="cls-2" d="M127,31a1.55,1.55,0,0,1,1.14.37,1.64,1.64,0,0,1,.37,1.2v3h-.36l-.09-.77h0a2.78,2.78,0,0,1-.37.45,1.6,1.6,0,0,1-.51.3,2.12,2.12,0,0,1-.72.1,1.72,1.72,0,0,1-.74-.15,1.06,1.06,0,0,1-.48-.43,1.22,1.22,0,0,1-.17-.69,1.12,1.12,0,0,1,.55-1,3.31,3.31,0,0,1,1.61-.41l.83,0v-.33a1.37,1.37,0,0,0-.27-1,1.09,1.09,0,0,0-.8-.27,2.52,2.52,0,0,0-.67.09,3.67,3.67,0,0,0-.64.25l-.15-.39a4.3,4.3,0,0,1,.69-.26A3,3,0,0,1,127,31Zm.26,2.35a2.91,2.91,0,0,0-1.29.3.87.87,0,0,0-.42.78.81.81,0,0,0,.26.64,1.14,1.14,0,0,0,.72.21,1.47,1.47,0,0,0,1.11-.4,1.57,1.57,0,0,0,.4-1.12v-.44Z"/><path class="cls-2" d="M131.64,31a1.72,1.72,0,0,1,.89.21,1.61,1.61,0,0,1,.56.57h0l.07-.69h.39v4.67a2.26,2.26,0,0,1-.2,1,1.44,1.44,0,0,1-.64.65,2.39,2.39,0,0,1-1.12.23,4.74,4.74,0,0,1-.89-.08,3.29,3.29,0,0,1-.71-.23v-.46a3.87,3.87,0,0,0,.73.26,4.29,4.29,0,0,0,.9.09,1.4,1.4,0,0,0,1.1-.39,1.49,1.49,0,0,0,.36-1.05v-.64c0-.12,0-.24,0-.34h0a1.44,1.44,0,0,1-.58.66,1.84,1.84,0,0,1-.94.22,1.71,1.71,0,0,1-1.37-.59,2.63,2.63,0,0,1-.49-1.72,2.82,2.82,0,0,1,.49-1.75A1.71,1.71,0,0,1,131.64,31Zm.05.42a1.29,1.29,0,0,0-1.31.9,3.09,3.09,0,0,0-.16,1.07,2.31,2.31,0,0,0,.37,1.42,1.22,1.22,0,0,0,1,.48,1.69,1.69,0,0,0,.72-.13,1.1,1.1,0,0,0,.45-.37,1.46,1.46,0,0,0,.23-.57,3.06,3.06,0,0,0,.08-.7v-.3a3.12,3.12,0,0,0-.14-1,1.17,1.17,0,0,0-.45-.61A1.44,1.44,0,0,0,131.69,31.45Z"/><path class="cls-2" d="M134.33,31.12h.52l1.08,2.81.17.46.13.4.11.34h0c0-.13.09-.3.16-.51s.15-.43.24-.68l1.06-2.82h.52l-2.05,5.34a3.22,3.22,0,0,1-.34.67,1.29,1.29,0,0,1-.44.43,1.2,1.2,0,0,1-.61.15l-.3,0-.25-.06v-.41l.23.05.26,0a.8.8,0,0,0,.41-.1.88.88,0,0,0,.32-.29,2.91,2.91,0,0,0,.25-.5l.29-.77Z"/><path class="cls-2" d="M139.32,29.44a.28.28,0,0,1,.24.1.36.36,0,0,1,.09.26.39.39,0,0,1-.09.28.34.34,0,0,1-.48,0,.39.39,0,0,1-.09-.28.36.36,0,0,1,.09-.26A.28.28,0,0,1,139.32,29.44Zm.24,1.68v4.53h-.48V31.12Z"/><path class="cls-2" d="M147.88,33.5a2.5,2.5,0,0,1-.27,1.2,1.87,1.87,0,0,1-.79.76,2.65,2.65,0,0,1-1.25.27,2.05,2.05,0,0,1-2.26-2.25V29.57h.49v3.91a1.83,1.83,0,0,0,.46,1.35,1.79,1.79,0,0,0,1.34.47,2,2,0,0,0,1-.21,1.38,1.38,0,0,0,.61-.61,2,2,0,0,0,.21-.95v-4h.49Z"/><path class="cls-2" d="M153.41,29.57a3,3,0,0,1,1.66.35,1.24,1.24,0,0,1,.53,1.13,1.53,1.53,0,0,1-.13.64,1.29,1.29,0,0,1-.39.48,1.65,1.65,0,0,1-.65.26v0a2.15,2.15,0,0,1,.74.26,1.12,1.12,0,0,1,.46.48,1.61,1.61,0,0,1,.15.73,1.73,1.73,0,0,1-.26,1,1.54,1.54,0,0,1-.75.57,3,3,0,0,1-1.12.19h-1.92V29.57Zm.12,2.68a2,2,0,0,0,1.2-.29,1,1,0,0,0,.37-.86.91.91,0,0,0-.4-.84,2.37,2.37,0,0,0-1.29-.26h-1.19v2.25Zm-1.31.42v2.55h1.39a1.92,1.92,0,0,0,1.25-.34,1.42,1.42,0,0,0,.22-1.68,1.16,1.16,0,0,0-.57-.4,3.32,3.32,0,0,0-1-.13Z"/><path class="cls-2" d="M158.6,31a1.55,1.55,0,0,1,1.14.37,1.64,1.64,0,0,1,.38,1.2v3h-.37l-.08-.77h0a2.34,2.34,0,0,1-.37.45,1.66,1.66,0,0,1-.5.3,2.2,2.2,0,0,1-.72.1,1.72,1.72,0,0,1-.74-.15,1.14,1.14,0,0,1-.49-.43,1.31,1.31,0,0,1-.17-.69,1.13,1.13,0,0,1,.56-1,3.28,3.28,0,0,1,1.61-.41l.82,0v-.33a1.37,1.37,0,0,0-.27-1,1.07,1.07,0,0,0-.79-.27,2.41,2.41,0,0,0-.67.09,3.39,3.39,0,0,0-.64.25l-.16-.39a4.42,4.42,0,0,1,.7-.26A3,3,0,0,1,158.6,31Zm.27,2.35a2.84,2.84,0,0,0-1.29.3.88.88,0,0,0-.43.78.78.78,0,0,0,.27.64,1.09,1.09,0,0,0,.71.21,1.48,1.48,0,0,0,1.12-.4,1.57,1.57,0,0,0,.39-1.12v-.44Z"/><path class="cls-2" d="M168,35.65h-.59l-2.31-3.15-.76.72v2.43h-.5V29.57h.5v3.16a4.48,4.48,0,0,1,.36-.4l.37-.41,2.26-2.35h.6l-2.48,2.58Z"/><path class="cls-2" d="M169.27,31.25c0,.12,0,.23,0,.33s0,.22,0,.33h0a1.48,1.48,0,0,1,.84-.76,2.3,2.3,0,0,1,1.57.06,1.18,1.18,0,0,1,.54.54,2.13,2.13,0,0,1,.18.94v3h-.48V32.72a1.41,1.41,0,0,0-.29-1,1.2,1.2,0,0,0-.88-.3,1.62,1.62,0,0,0-.83.19,1.19,1.19,0,0,0-.5.58,2.47,2.47,0,0,0-.16,1v2.47h-.48V29.17h.48Z"/><path class="cls-2" d="M174.1,29.44a.28.28,0,0,1,.24.1.36.36,0,0,1,.09.26.39.39,0,0,1-.09.28.34.34,0,0,1-.48,0,.39.39,0,0,1-.09-.28.36.36,0,0,1,.09-.26A.28.28,0,0,1,174.1,29.44Zm.24,1.68v4.53h-.48V31.12Z"/><path class="cls-2" d="M177.86,31a1.63,1.63,0,0,1,1.19.4,1.72,1.72,0,0,1,.41,1.26v3H179V32.72a1.36,1.36,0,0,0-.3-1,1.19,1.19,0,0,0-.88-.3,1.38,1.38,0,0,0-1.11.43,1.94,1.94,0,0,0-.38,1.3v2.47h-.47V31.12h.38l.08.78h0a1.62,1.62,0,0,1,.34-.44,1.5,1.5,0,0,1,.52-.31A1.83,1.83,0,0,1,177.86,31Z"/><g id="one-colour-wheel"><g id="gold"><path id="path1262" class="cls-3" d="M17.79,0A15.81,15.81,0,0,0,12,1.06C5.8,3.55,1.2,10.79.21,19.65c-1.4,12.58,4.32,23.92,13.35,26.48l.94.28a11.32,11.32,0,0,0,1.61.36c6.91,1,13.34-5.35,15.82-15.54a35.35,35.35,0,0,0-.1-16.08C29.46,6,24,.16,17.79,0Zm-.23.32c6.76.06,13,7.33,14.53,18.15C34,31.87,27.91,44.9,19,46.39h0c-7,1.18-13.7-5.71-15.78-16.17C.85,18.21,5.12,5.41,12.84,1.48A10.15,10.15,0,0,1,17.56.32Zm.82,2.28c-5.88,0-10.9,6.35-12.44,16a33.85,33.85,0,0,0,.3,11.5l.19.88A24.31,24.31,0,0,0,9,37.55a16.41,16.41,0,0,0,2.73,3.59h0a9.46,9.46,0,0,0,5.39,2.72h0c4.32.6,8.85-2.69,11.4-8.27,6-13.25.53-32.2-9.58-33Zm-2.25.67.79.09,1.48,8.48c.84,4.53,1.67,8.34,1.68,8.39l-.54.14Zm2,.14a1.07,1.07,0,0,1,.68.2.31.31,0,0,1,0,.1.5.5,0,0,1-.25.43l0,0h0a.65.65,0,0,1-.2,0,.51.51,0,0,1-.5-.5h0a.48.48,0,0,1,.06-.24A.76.76,0,0,1,18.11,3.41Zm-3.57.32s0,.07,0,.1,0,0,0,0h0a.36.36,0,0,1,0,.1h0a.46.46,0,0,1-.44.32.44.44,0,0,1-.27-.09h0l-.08-.06h0A2.89,2.89,0,0,1,14.54,3.73Zm.63.14c.18,0,.29,0,.31.08l1.27,6.32C17.43,13.69,18,16.49,18,16.5q-2.43-5.91-4.8-11.84c0-.1.14-.22.38-.34a.73.73,0,0,0,.53.24.74.74,0,0,0,.72-.64A1.72,1.72,0,0,1,15.17,3.87Zm2.11,0,.29.06a.77.77,0,0,0,.73.53.79.79,0,0,0,.52-.2,2.15,2.15,0,0,1,.46.18l.11,5.92h0c0,2,.05,3.92.07,5.88L18.3,10.11c-.64-3.4-1.15-6.19-1.13-6.2Zm2.78,0a1.07,1.07,0,0,1,.59.22l0,4.12,0,7.86v4.07a2,2,0,0,0-.47,0v-1.7l-.05-7.94C20.15,7.15,20.05,3.93,20.06,3.92Zm1.68.82a.77.77,0,0,1,.76.46h0a.57.57,0,0,1-.48.56h-.09a.45.45,0,0,1-.2,0h0a.45.45,0,0,1-.17-.11h0a.66.66,0,0,1-.12-.17h0a.59.59,0,0,1-.05-.22.78.78,0,0,1,0-.16.58.58,0,0,1,.13-.23h0A.44.44,0,0,1,21.74,4.74Zm-8.81.06s.05,0,.08.06l3.22,7.84,3.17,7.74-.19.19c-.1.1-.19.16-.21.14l-3.26-7.83L12.51,5.15,12.73,5A1,1,0,0,1,12.93,4.8Zm8,.46.2.14a.87.87,0,0,0,.85.68h0l.47.38h0l.18.16-.84,4.56L21,15.74l0-1.6,0-5.24Zm2.65.64a1.34,1.34,0,0,1,.44.34l-1.36,7.08c-.39,2-.84,4.46-1.21,6.84H21l1.26-6.94Zm-11.73,0,2.52,5.92c1.37,3.23,2.48,5.89,2.47,5.89L13.38,13,10,8.17l.25-.36.21-.28a.44.44,0,0,0,.2,0,.66.66,0,0,0,.6-.73.73.73,0,0,0-.07-.24C11.5,6.16,11.77,5.87,11.81,5.91Zm13,1.43h.07l.12,0h.08l.08,0h0a.34.34,0,0,1,.09.08h0a.42.42,0,0,1,.11.18.43.43,0,0,1,0,.19.57.57,0,0,1-.08.29l0,.06h0l0,0v0l-.05,0a.57.57,0,0,1-.13.08.59.59,0,0,1-.23.05.57.57,0,0,1-.25-.06h0l-.07,0h0l0,0h0l0,0,0,0h0l0,0h0l0,0h0l0,0h0l0,0h0s0,0,0,0a.69.69,0,0,1,0-.2.57.57,0,0,1,.06-.25.16.16,0,0,1,0-.07l.06-.07a.49.49,0,0,1,.14-.11l.07,0h0l.06,0Zm-1,.64a.49.49,0,0,1,.14.13.91.91,0,0,0,.46.59c.13.18.25.33.41.57l.25.37-1.37,3.43h0a25.88,25.88,0,0,1-1.45,3.53c0-.07,1.5-8.51,1.53-8.6Zm-14,.49Q14.34,14.74,18.8,21a.84.84,0,0,1-.1.32l-.13.26L14,15.38,9.46,9.1C9.41,9,9.8,8.4,9.87,8.47Zm16.31.44c.08.13.2.38.27.52L22.15,20.3l-.24-.06-.22,0ZM9,10l3.62,4.88h0c2,2.66,3.58,4.84,3.57,4.84s-8.43-6.84-8.44-6.89a4.12,4.12,0,0,1,.31-.89.54.54,0,0,0,.25-.06A.66.66,0,0,0,8.68,11a.76.76,0,0,0-.12-.19A3.28,3.28,0,0,1,9,10Zm17.89.73H27l.12,0,0,0h0l.07,0h0a.39.39,0,0,1,.1.08h0a.54.54,0,0,1,.11.18.63.63,0,0,1,0,.19.53.53,0,0,1,0,.13v0h0l0,0h0l0,0h0a.05.05,0,0,1,0,0h0s0,0,0,0h0l0,0h0l0,0-.09.08h0l0,0h0l0,0h0l0,0a.63.63,0,0,1-.19,0,.54.54,0,0,1-.25-.06h0l0,0h0l0,0,0,0,0,0h0l0,0h0l0,0h0l0,0h0a.05.05,0,0,0,0,0h0s0,0,0,0a.48.48,0,0,1,0-.2.78.78,0,0,1,0-.21h0l.06-.11h0l0,0h0l0,0a.39.39,0,0,1,.1-.08l.06,0,0,0,.09,0Zm-.93.47.09.17a.85.85,0,0,0,.28.59c.12.26.26.55.33.72l.17.4L25,15.61l-1.8,2.6,1.37-3.57Zm2.15,1.19.17.51-2.72,3.93-2.69,4-.17-.18-.18-.18,2.77-4C27.33,13.43,28,12.43,28.11,12.34Zm-20.44.75c3.58,2.87,7.16,5.78,10.73,8.68.05.05.05.11,0,.39h0a1.8,1.8,0,0,1-.11.33c-.08,0-10.9-8.55-10.9-8.61S7.61,13.05,7.67,13.09Zm20.62,1.19h0a.52.52,0,0,1,.17,0l.08,0h0a.58.58,0,0,1,.31.51.78.78,0,0,1,0,.16h0s0,0,0,0h0s0,0,0,0h0l0,0h0l0,0h0l0,0h0l0,0-.06,0h0l0,0h0l0,0h0l0,0a.63.63,0,0,1-.19,0l-.18,0,0,0h0l0,0h0l0,0h0l0,0h0l0,0h0l0,0h0l0,0h0l-.05-.07h0l0,0h0a.55.55,0,0,1-.07-.28.6.6,0,0,1,.1-.32h0l.06-.07.06-.06.07-.05.08,0a.31.31,0,0,1,.13,0Zm-.91.22.07.24a.34.34,0,0,0,0,.1.87.87,0,0,0,.2.56,5.36,5.36,0,0,1,.28,1.17l-2.11,1.77-2.16,1.77s.37-.59.9-1.38l1.89-2.84Zm-20.25.21q4.56,3.41,9.05,6.9h0l-4.92-1.72C6.73,18.27,6.38,18.13,6.38,18s.08-.5.17-1A.62.62,0,0,0,6.78,17a.66.66,0,0,0,.28-.9.69.69,0,0,0-.23-.25A7.77,7.77,0,0,1,7.13,14.71Zm22.2,1.41.11.45-2.91,2.52-3.11,2.69c-.05,0-.25-.47-.21-.51Q26.25,18.67,29.33,16.12Zm-.16,1.79h0l.17,0a.74.74,0,0,1,.22.14.39.39,0,0,1,.08.1l0,0h0a.58.58,0,0,1,.06.17.37.37,0,0,1,0,.11.55.55,0,0,1,0,.17l0,.08h0l0,0h0l-.08.1h0l0,0h0l0,0h0l-.06,0h0l0,0-.12,0H29l0,0h0l-.07,0h0l0,0h0l0,0s0,0,0,0h0a.86.86,0,0,1-.07-.1h0s0,0,0,0h0a.06.06,0,0,1,0,0h0s0,0,0,0h0a.77.77,0,0,1,0-.15.57.57,0,0,1,0-.18h0l0-.08h0l0-.07h0a.56.56,0,0,1,.27-.21.31.31,0,0,1,.13,0Zm-.94.05a4.74,4.74,0,0,1,.09.48h0v0a.78.78,0,0,0,.07.33c.06.38.12.8.13,1l0,.14-2.37.93-2.38.93,2.31-2C27.26,18.75,28.22,17.94,28.23,18Zm-21.88.5q5.93,2.12,11.84,4.27h0a1.14,1.14,0,0,1,0,.39l0,.36-6-2-6-2a2.89,2.89,0,0,1,.14-1ZM30,19.76l0,.44L27.2,21.4h0L24,22.73a1.73,1.73,0,0,0-.35-.37Zm-23.87.12,5.36,1.73,5.34,1.76-1.48,0-5.45.06-4,0v-.62c0-.17,0-.4,0-.62a.58.58,0,0,0,.19-.1.67.67,0,0,0,.13-.93A.66.66,0,0,0,6,21,7.41,7.41,0,0,1,6.16,19.88Zm15.64.58c.57,0,1.14.49,1.5,1.52.14.38.15.37-.64.37-.58,0-.65,0-.79.11a2.26,2.26,0,0,0-.12,2.74l.2.21h1.46l-.05.18a3,3,0,0,1-1.05,1.56c-1.7.89-2.94-3.12-1.73-5.62C20.92,20.83,21.36,20.48,21.8,20.46Zm6.83.58,0,.32s0,.12,0,.17a1,1,0,0,0-.05.3.9.9,0,0,0,.09.4c0,.05,0,.08,0,.13l0,.69-1,0-2.26.06-1.22,0,0-.11c-.05-.13-.27,0,2.22-1.08Zm.84.23h.19l0,0h0a.2.2,0,0,1,.08,0h0a.39.39,0,0,1,.1.08.55.55,0,0,1,.18.4A.57.57,0,0,1,30,22l0,.08h0l-.05.07h0s0,0,0,0h0l0,0h0l0,0h0l0,0h0l0,0h0a.05.05,0,0,1,0,0h0l0,0a.58.58,0,0,1-.19,0l-.17,0h0l0,0h0l-.07,0h0l-.07-.05h0l0,0h0l0,0h0l0,0h0v0s0,0,0,0h0l0,0h0l0,0h0s0,0,0,0h0s0,0,0,0a.37.37,0,0,1,0-.11v0h0a.59.59,0,0,1,0-.13h0s0,0,0,0h0a.08.08,0,0,1,0,0h0l0,0h0l0,0h0v0l0,0h0l0,0h0l.06-.05,0,0,0,0,.12,0Zm-6,1.27c.72,0,.95,1.92.3,2.5h0c-.81.72-1.39-1.53-.6-2.33A.43.43,0,0,1,23.46,22.54Zm6.75.79v.47l-2.55.08-3,.14-.36,0,0-.31v-.3h.16l2.9-.07c1,0,1.7-.05,2.87,0Zm-12.06.34v.66h-.24l-5.42.24-5.86.26-.69,0V24c2-.07,4.07-.1,6.11-.15l5.19-.12ZM28.71,24l0,.72a.79.79,0,0,0-.1.4,1,1,0,0,0,.05.3c0,.14,0,.39,0,.43l0,.18-2.13-.75-2.18-.77a.2.2,0,0,1,0-.16l0-.13,1.93-.09,2.23-.1Zm-10.56.44a5.65,5.65,0,0,1,.11.68l-5.8,2.45L6.64,30.06a2.24,2.24,0,0,1-.18-.93Q12.29,26.78,18.15,24.48Zm11.29.11h.08l.08,0h.08a.71.71,0,0,1,.18.12.59.59,0,0,1,.16.3.41.41,0,0,1,0,.11.53.53,0,0,1-.13.36h0l0,0,0,.05-.06,0h0l-.07,0a.59.59,0,0,1-.23.05.55.55,0,0,1-.29-.08l-.07,0h0l0,0h0l0,0h0l0,0h0l0,0h0v0h0l0,0h0s0,0,0,0h0s0,0,0,0h0a.06.06,0,0,0,0,0s0-.07,0-.11a.54.54,0,0,1,.06-.25A.41.41,0,0,1,29,24.8h0l0,0a.44.44,0,0,1,.15-.12l.1,0h.13Zm-13.06.1-4.93,1.94h0l-5,2c-.08,0-.1-.06-.23-1.11a.6.6,0,0,0,.22-.16.68.68,0,0,0-.07-.95h0a.62.62,0,0,0-.28-.14,8,8,0,0,1-.08-1c3.47-.18,6.93-.35,10.4-.51Zm7.74.17s4.75,1.59,5.84,2l-.08.44-6-2c-.06,0-.05-.05.09-.24Zm-5.83.55a1.79,1.79,0,0,1,.2.59l-3.73,3.23h0c-2.29,2-4.54,4-6.71,5.75-.06-.13-.12-.26-.17-.4l-.13-.35L13,29.81Zm5.46.26s4.67,1.52,4.7,1.55a6.26,6.26,0,0,1-.12.93.94.94,0,0,0-.13.46.88.88,0,0,0,0,.17l-.09.43S23.74,25.69,23.75,25.67Zm-.28.25,5.83,4.62-.11.43-2.81-2.13c-1.05-.81-2.1-1.64-3.14-2.48l.23-.44Zm-4.85.31.13.24a1.35,1.35,0,0,1,.12.27L14.71,33h0L10.5,39.32c-.05,0-.43-.49-.4-.56l4.27-6.3ZM16,26.4c.08,0-.61.57-4.24,3.57-2.29,1.89-4.19,3.44-4.22,3.46a5.84,5.84,0,0,1-.35-1,.67.67,0,0,0,.22-.25.68.68,0,0,0-.3-.9.57.57,0,0,0-.25-.06,6.12,6.12,0,0,1-.18-.81s1.08-.53,4.34-1.9l4.72-2A2.24,2.24,0,0,1,16,26.4Zm7,.42,2.68,3.75c1.47,2.07,2.5,3.52,2.51,3.55l-.15.4-2.4-3.3-2.78-3.81-.19-.26.17-.16ZM19.06,27s.1,0,.19.12l.17.15-2.7,7c-1,2.69-2,5.46-3.17,8.09a1.76,1.76,0,0,1-.43-.31S19,27,19.06,27Zm.64.42s.08,0,.18,0,.2.06.18.17l-1.39,7.92c-.76,4.29-1.39,7.88-1.4,7.89h-.45s2.79-15.72,2.83-15.91S19.67,27.44,19.7,27.43Zm2.52,0h0l4.1,10.11-.22.34-.32-.79-2.2-5.29-1.79-4.31.21,0A.69.69,0,0,1,22.22,27.45Zm-1.89,0h.4l0,4.95,0,7.63v2.67l-.18.1-.18.09,0-4,0-7.72Zm.9,0h.2l.08.36c.74,4,1.73,9.2,2.36,12.61l-.27.27C23.55,40.78,21,27.56,21,27.52S21.12,27.49,21.23,27.49Zm2.61,0,2,1.54c1.07.83,1.95,1.51,1.95,1.53s-.12.44-.21.76a.88.88,0,0,0-.28.9s0,.09,0,.14l-1.76-2.46C24.56,28.57,23.8,27.49,23.84,27.52Zm5.21.52h.08l.08,0h.08a.57.57,0,0,1,.18.12.59.59,0,0,1,.16.3.45.45,0,0,1,0,.11.59.59,0,0,1-.13.36h0l0,0,0,.05-.06,0h0a.55.55,0,0,1-.3.09.55.55,0,0,1-.29-.08l-.07-.05h0l0,0h0l0,0h0l0,0h0l0,0h0l0,0h0l0,0h0s0,0,0,0h0s0,0,0,0h0s0,0,0,0,0-.07,0-.11a.54.54,0,0,1,.06-.25.41.41,0,0,1,.07-.11h0l0,0a.33.33,0,0,1,.15-.11.09.09,0,0,1,.06,0l.09,0Zm-12.76.18L9.53,38A10.87,10.87,0,0,1,9,37a.8.8,0,0,0,.08-.16A.67.67,0,0,0,8.63,36a.51.51,0,0,0-.17,0,2.32,2.32,0,0,1-.25-.68Q12.23,31.72,16.29,28.22Zm7,1L25,31.55l1.71,2.3-.1.25h0c0,.11-.2.44-.35.75a.88.88,0,0,0-.34.69l-.06.14-1-2.46L23.55,30a5.08,5.08,0,0,1-.28-.75ZM16.7,30.56,12.38,41.37h0s0,.06-.06.06a5,5,0,0,1-.47-.46,1.21,1.21,0,0,0,.05-.18.68.68,0,0,0-.6-.74h-.09a.47.47,0,0,0-.17,0,.87.87,0,0,1-.13-.15l-.27-.33,2.18-3.27,3-4.53c.46-.69.85-1.25.86-1.24Zm5.65.29L23.69,34,25,37.13l-.23.35-.26.35a.89.89,0,0,0-.68.84v0l-.74-3.91C22.68,32.6,22.34,30.86,22.35,30.85Zm5.79.6h0l.17,0h0l0,0h0a.57.57,0,0,1,.31.51.45.45,0,0,1,0,.16h0l0,.07h0l-.07.11h0l0,0h0l0,0,0,0h0l-.05,0h0l0,0h0a.27.27,0,0,1-.12,0H28l0,0h0l0,0h0l0,0h0l0,0h0l0,0h0l0,0h0l-.07-.11h0A.52.52,0,0,1,27.6,32a.51.51,0,0,1,.06-.25.2.2,0,0,1,0-.08h0l.06-.07a.6.6,0,0,1,.21-.14l.13,0ZM18,31.84q-1,5.44-2,10.89a.12.12,0,0,1-.13.1l-.29,0a.7.7,0,0,0-.39-.42L15,42.32h-.1a.71.71,0,0,0-.52.29,2.42,2.42,0,0,1-.51-.14Q15.88,37.15,18,31.84Zm3.07,0,.81,4.05L22.66,40a4.22,4.22,0,0,1-.51.46.93.93,0,0,0-.73.38.91.91,0,0,0-.14.3l-.07,0-.12.08,0-.18,0-4.7Zm-1.53.46,0,4.9v4.89l-.28.12-.16,0a.88.88,0,0,0-1.06.33l-.09,0-.28.06L18.32,39l.91-5.2C19.38,33,19.51,32.3,19.51,32.3ZM26.78,35h0A.51.51,0,0,1,27,35a.61.61,0,0,1,.22.13.58.58,0,0,1,.17.41.88.88,0,0,1,0,.17l0,.08h0a.55.55,0,0,1-.09.14h0l0,0h0l0,0h0l-.07,0h0l0,0h0l0,0-.11,0h-.08l-.17,0h0a.05.05,0,0,1,0,0h0l0,0h0l0,0h0L26.42,36h0a.69.69,0,0,1-.11-.13h0a.68.68,0,0,1-.07-.28.59.59,0,0,1,.16-.39l.06-.06.08-.05.08,0,.12,0Zm-2.09,3.16h0a.56.56,0,0,1,.49.29h0a.68.68,0,0,1,.07.27.57.57,0,0,1,0,.18l0,.08h0l0,0h0s0,0,0,0h0a.18.18,0,0,1-.05.07h0l0,0h0l0,0h0l0,0h0l0,0h0l0,0a.69.69,0,0,1-.2,0h-.17l0,0h0l-.07,0h0l0,0h0l0,0,0,0,0,0h0L24.24,39l-.06-.12h0s0,0,0,0h0a.78.78,0,0,1,0-.16.55.55,0,0,1,0-.17h0a.16.16,0,0,1,0-.08h0a.25.25,0,0,1,0-.07h0l.06-.07.06-.06.07-.05.12,0,.09,0Zm-2.44,2.64a.48.48,0,0,1,.17,0,.3.3,0,0,1,.11.06l.12.11a.64.64,0,0,1,.12.25h0a.8.8,0,0,1-.95.6h0a.59.59,0,0,1-.18-.75h0l0,0,0,0v0l.05-.06,0,0h0l.08-.06h0a.6.6,0,0,1,.21-.08h0a.48.48,0,0,1,.17,0Zm-3.47,1.72h.13a.52.52,0,0,1,.41.47.41.41,0,0,1,0,.11,1.07,1.07,0,0,1-1,.2.49.49,0,0,1-.08-.23.52.52,0,0,1,.32-.52l.05,0h0l.13,0Zm-3.9.08a.49.49,0,0,1,.4.2h0a.48.48,0,0,1,.08.16v0a.49.49,0,0,1,0,.12s0,0,0,.06a2.85,2.85,0,0,1-.86-.31l0-.07,0,0h0a.41.41,0,0,1,.31-.14Z"/></g></g></g></g></svg>